<svg width="42" height="42" viewBox="0 0 42 42" fill="none" xmlns="http://www.w3.org/2000/svg">
<path d="M39.2222 3.9165H2.77778C1.79594 3.9165 1 4.73234 1 5.73873V29.4276C1 30.434 1.79594 31.2498 2.77778 31.2498H39.2222C40.2041 31.2498 41 30.434 41 29.4276V5.73873C41 4.73234 40.2041 3.9165 39.2222 3.9165Z" stroke="#DFDFDF" stroke-width="1.30474" stroke-linecap="round" stroke-linejoin="round"/>
<path d="M13 38.0833H29" stroke="#DFDFDF" stroke-width="1.30474" stroke-linecap="round" stroke-linejoin="round"/>
<path d="M21 31.25V38.0833" stroke="#DFDFDF" stroke-width="1.30474" stroke-linecap="round" stroke-linejoin="round"/>
<path d="M39.2222 3.9165H2.77778C1.79594 3.9165 1 4.73234 1 5.73873V29.4276C1 30.434 1.79594 31.2498 2.77778 31.2498H39.2222C40.2041 31.2498 41 30.434 41 29.4276V5.73873C41 4.73234 40.2041 3.9165 39.2222 3.9165Z" stroke="#DFDFDF" stroke-width="1.30474" stroke-linecap="round" stroke-linejoin="round"/>
<path d="M13 38.0833H29" stroke="#DFDFDF" stroke-width="1.30474" stroke-linecap="round" stroke-linejoin="round"/>
<path d="M21 31.25V38.0833" stroke="#DFDFDF" stroke-width="1.30474" stroke-linecap="round" stroke-linejoin="round"/>
</svg>
