<svg width="193" height="34" viewBox="0 0 193 34" fill="none" xmlns="http://www.w3.org/2000/svg">
<path d="M151.767 32.7764V2.02095H145.924V11.1056C144.291 9.52055 142.068 8.6452 139.323 8.6452C132.628 8.6452 127.542 14.0865 127.542 20.9001C127.542 27.7372 132.628 33.2732 139.323 33.2732C142.068 33.2732 144.291 32.3269 145.924 30.7418V32.7764H151.767ZM139.962 27.6426C136.366 27.6426 133.456 24.638 133.456 20.9001C133.456 17.2331 136.366 14.1812 139.962 14.1812C142.351 14.1812 144.623 15.3641 145.758 17.3277C145.829 17.4696 145.924 17.6589 145.924 17.8955V23.9046C145.924 24.0229 145.853 24.2358 145.806 24.3068C144.694 26.3414 142.422 27.6426 139.962 27.6426ZM124.892 32.7764V9.11836H119.048V32.7764H124.892ZM121.982 7.32035C123.851 7.32035 125.365 5.78258 125.365 3.91359C125.365 2.02095 123.851 0.506836 121.982 0.506836C120.113 0.506836 118.599 2.02095 118.599 3.91359C118.599 5.78258 120.113 7.32035 121.982 7.32035ZM104.025 33.2496C110.863 33.2496 116.399 27.7372 116.399 20.9001C116.399 14.0865 110.863 8.6452 104.025 8.6452C97.2119 8.6452 91.6759 14.0865 91.6759 20.9001C91.6759 27.7372 97.2119 33.2496 104.025 33.2496ZM104.025 27.3587C100.477 27.3587 97.5904 24.4724 97.5904 20.9001C97.5904 17.3514 100.477 14.4651 104.025 14.4651C107.621 14.4651 110.484 17.3514 110.484 20.9001C110.484 24.4724 107.621 27.3587 104.025 27.3587ZM85.5485 32.7764V20.143C85.5485 16.405 87.5121 14.4178 91.2501 14.4178V8.6452C83.7268 8.6452 79.705 12.6434 79.705 20.143V32.7764H85.5485ZM76.6058 32.7764V2.02095H70.7622V11.1056C69.1298 9.52055 66.906 8.57422 64.1616 8.57422C57.4664 8.57422 52.3799 14.0865 52.3799 20.9001C52.3799 27.7372 57.4664 33.2496 64.1616 33.2496C66.906 33.2496 69.1298 32.3269 70.7622 30.7418V32.7764H76.6058ZM64.8004 27.6426C61.2044 27.6426 58.2944 24.638 58.2944 20.9001C58.2944 17.2331 61.2044 14.1812 64.8004 14.1812C67.1899 14.1812 69.461 15.3641 70.5966 17.3277C70.6676 17.4696 70.7622 17.6589 70.7622 17.8955V23.881C70.7622 23.9993 70.6913 24.2358 70.6439 24.3068C69.532 26.3414 67.2608 27.6426 64.8004 27.6426ZM49.9432 32.7764V19.9774C49.9432 13.6844 45.046 8.6452 38.8002 8.6452C32.5309 8.6452 27.6573 13.6844 27.6573 19.9774V32.7764H33.5008V19.9774C33.5008 16.8782 35.6774 14.5124 38.8002 14.5124C41.8994 14.5124 44.0996 16.8782 44.0996 19.9774V32.7764H49.9432ZM24.5581 32.7764V9.11836H18.7146V11.1056C17.0822 9.52055 14.8583 8.6452 12.114 8.6452C5.41875 8.6452 0.332275 14.0865 0.332275 20.9001C0.332275 27.7372 5.41875 33.2496 12.114 33.2496C14.8583 33.2496 17.0822 32.3269 18.7146 30.7418V32.7764H24.5581ZM12.7527 27.6426C9.15672 27.6426 6.24678 24.638 6.24678 20.9001C6.24678 17.2331 9.15672 14.1812 12.7527 14.1812C15.1422 14.1812 17.5317 15.2931 18.549 17.3277C18.6199 17.4696 18.7146 17.6589 18.7146 17.8955V23.8573C18.7146 23.9756 18.6436 24.2358 18.5963 24.3068C17.4843 26.3414 15.2132 27.6426 12.7527 27.6426Z" fill="#808080"/>
<path d="M167.121 33.0603L167.145 28.8492H166.625C163.194 28.8492 160.781 26.7909 160.781 23.3132V13.0219H166.956V9.11836H160.781V2.70703H156.499V23.3132C156.499 29.4406 160.473 33.0603 166.625 33.0603H167.121ZM182.57 32.7764L192.175 9.0947H187.349L179.495 29.6299H181.127L173.249 9.11836H168.281L177.886 32.7764H182.57Z" fill="#808080"/>
</svg>
