<svg width="168" height="40" viewBox="0 0 168 40" fill="none" xmlns="http://www.w3.org/2000/svg">
<path d="M27.2401 21.1318C27.1989 16.2147 31.2645 13.8248 31.443 13.7149C29.1356 10.3636 25.5645 9.89661 24.3146 9.85541C21.3204 9.5395 18.4086 11.6547 16.884 11.6547C15.332 11.6547 12.9695 9.89661 10.4423 9.93782C7.18713 9.99276 4.12424 11.8744 2.46231 14.8137C-0.985161 20.7884 1.58327 29.5788 4.89339 34.4135C6.55532 36.7759 8.47821 39.4267 11.0192 39.3306C13.4915 39.2344 14.4254 37.7511 17.4059 37.7511C20.3727 37.7511 21.238 39.3306 23.8201 39.2757C26.4847 39.2345 28.1467 36.8995 29.7536 34.5096C31.6628 31.8038 32.432 29.1255 32.4594 28.9882C32.3907 28.9607 27.2951 27.0104 27.2401 21.1318" fill="#808080"/>
<path d="M22.3643 6.68293C23.6966 5.021 24.6031 2.75474 24.3558 0.447266C22.4329 0.529675 20.0156 1.77956 18.6284 3.41401C17.406 4.85618 16.3072 7.20486 16.5819 9.41618C18.752 9.581 20.977 8.31739 22.3643 6.68293" fill="#808080"/>
<path d="M63.1159 31.0248H59.6547L57.7593 25.0638H51.1665L49.3673 31.0248H46.0022L52.5263 10.7383H56.5644L63.1159 31.0248ZM57.1962 22.5641L55.4793 17.2761C55.3008 16.7267 54.9574 15.4631 54.4629 13.4578H54.3942C54.1882 14.3231 53.8723 15.6005 53.4328 17.2761L51.7434 22.5641H57.1962Z" fill="#808080"/>
<path d="M79.8862 23.5381C79.8862 26.0241 79.2132 27.9882 77.8535 29.4304C76.6448 30.7215 75.134 31.3533 73.3484 31.3533C71.4118 31.3533 70.0246 30.6665 69.173 29.2793V36.9571H65.9178V21.2031C65.9178 19.6374 65.8766 18.0441 65.7942 16.3959H68.6511L68.8296 18.7171H68.8846C69.9696 16.9728 71.6178 16.0938 73.8154 16.0938C75.546 16.0938 76.9744 16.7805 78.1282 18.1403C79.3094 19.5138 79.8862 21.2993 79.8862 23.5381V23.5381ZM76.5761 23.648C76.5761 22.2195 76.2602 21.0521 75.6147 20.1318C74.9142 19.1704 73.9665 18.6897 72.7853 18.6897C71.9886 18.6897 71.2607 18.9644 70.6014 19.4863C69.9559 20.0219 69.5164 20.7087 69.3241 21.574C69.2279 21.9723 69.173 22.3019 69.173 22.5629V25.0077C69.173 26.0653 69.5026 26.9718 70.1482 27.6998C70.7937 28.4277 71.6453 28.7986 72.6891 28.7986C73.9115 28.7986 74.8593 28.3178 75.546 27.3839C76.2327 26.4362 76.5761 25.2 76.5761 23.648V23.648Z" fill="#808080"/>
<path d="M96.6978 23.5381C96.6978 26.0241 96.0248 27.9882 94.665 29.4304C93.4563 30.7215 91.9455 31.3533 90.1599 31.3533C88.2233 31.3533 86.8361 30.6665 85.9845 29.2793V36.9571H82.7293V21.2031C82.7293 19.6374 82.6881 18.0441 82.6057 16.3959H85.4626L85.6411 18.7171H85.6961C86.7811 16.9728 88.4293 16.0938 90.6269 16.0938C92.3575 16.0938 93.786 16.7805 94.9397 18.1403C96.1209 19.5138 96.6978 21.2993 96.6978 23.5381ZM93.3876 23.648C93.3876 22.2195 93.0717 21.0521 92.4262 20.1318C91.7257 19.1704 90.778 18.6897 89.5968 18.6897C88.8002 18.6897 88.0722 18.9644 87.4129 19.4863C86.7674 20.0219 86.3416 20.7087 86.1356 21.574C86.0395 21.9723 85.9845 22.3019 85.9845 22.5629V25.0077C85.9845 26.0653 86.3141 26.9718 86.9597 27.6998C87.6052 28.4277 88.4568 28.7986 89.5007 28.7986C90.7231 28.7986 91.6845 28.3178 92.3575 27.3839C93.058 26.4362 93.3876 25.2 93.3876 23.648V23.648Z" fill="#808080"/>
<path d="M115.515 25.3379C115.515 27.0685 114.91 28.4695 113.715 29.5545C112.397 30.7357 110.556 31.3263 108.194 31.3263C106.01 31.3263 104.266 30.9005 102.947 30.0627L103.703 27.3569C105.131 28.1948 106.697 28.6205 108.4 28.6205C109.622 28.6205 110.584 28.3458 111.257 27.7965C111.944 27.2471 112.287 26.5054 112.287 25.5851C112.287 24.761 111.999 24.0743 111.449 23.5111C110.886 22.948 109.952 22.4261 108.647 21.9454C105.062 20.6131 103.291 18.6764 103.291 16.1355C103.291 14.4736 103.922 13.1138 105.172 12.0425C106.422 10.9849 108.084 10.4492 110.158 10.4492C111.999 10.4492 113.537 10.7651 114.759 11.4107L113.935 14.0478C112.781 13.4297 111.49 13.1138 110.034 13.1138C108.894 13.1138 107.988 13.4022 107.342 13.9516C106.807 14.4598 106.532 15.0642 106.532 15.7921C106.532 16.5887 106.848 17.2618 107.466 17.7699C108.002 18.2507 108.991 18.7726 110.419 19.3357C112.163 20.0362 113.441 20.8603 114.265 21.808C115.103 22.7557 115.515 23.9369 115.515 25.3379" fill="#808080"/>
<path d="M126.283 18.8414H122.698V25.9424C122.698 27.7417 123.33 28.6482 124.594 28.6482C125.171 28.6482 125.651 28.5932 126.036 28.4971L126.132 30.9694C125.486 31.2029 124.649 31.3265 123.605 31.3265C122.314 31.3265 121.325 30.9282 120.597 30.1453C119.869 29.3624 119.512 28.0438 119.512 26.2033V18.8277H117.383V16.3966H119.512V13.7183L122.698 12.7568V16.3966H126.283V18.8414" fill="#808080"/>
<path d="M142.408 23.593C142.408 25.8455 141.762 27.686 140.485 29.1281C139.139 30.6115 137.353 31.3532 135.128 31.3532C132.986 31.3532 131.269 30.639 129.991 29.2243C128.714 27.8096 128.082 26.0103 128.082 23.8402C128.082 21.5739 128.742 19.7197 130.046 18.2775C131.365 16.8354 133.137 16.1074 135.362 16.1074C137.504 16.1074 139.235 16.8216 140.54 18.2501C141.79 19.6236 142.408 21.4091 142.408 23.593V23.593ZM139.043 23.6616C139.043 22.3156 138.754 21.1756 138.177 20.2142C137.491 19.0467 136.516 18.4698 135.252 18.4698C133.947 18.4698 132.944 19.0467 132.271 20.2142C131.681 21.1756 131.406 22.3431 131.406 23.7303C131.406 25.0763 131.695 26.2301 132.271 27.1778C132.972 28.3453 133.961 28.9221 135.224 28.9221C136.461 28.9221 137.436 28.3315 138.15 27.1503C138.741 26.1614 139.043 25.0077 139.043 23.6616V23.6616Z" fill="#808080"/>
<path d="M152.984 19.2528C152.668 19.1978 152.324 19.1704 151.954 19.1704C150.814 19.1704 149.921 19.5962 149.303 20.4615C148.767 21.2169 148.492 22.1921 148.492 23.3458V31.0236H145.237V20.9971C145.237 19.3077 145.21 17.7694 145.141 16.3959H147.971L148.094 19.1978H148.19C148.534 18.2364 149.069 17.4535 149.811 16.8766C150.539 16.3547 151.322 16.0938 152.16 16.0938C152.462 16.0938 152.737 16.1212 152.97 16.1487L152.984 19.2528" fill="#808080"/>
<path d="M167.515 23.0164C167.515 23.5932 167.474 24.0877 167.392 24.486H157.64C157.681 25.9282 158.148 27.0407 159.055 27.7961C159.879 28.4691 160.936 28.8125 162.241 28.8125C163.683 28.8125 165.002 28.579 166.183 28.1257L166.691 30.3783C165.304 30.9826 163.67 31.2848 161.788 31.2848C159.522 31.2848 157.736 30.6118 156.445 29.2795C155.154 27.9472 154.508 26.1479 154.508 23.9091C154.508 21.7115 155.113 19.871 156.321 18.4014C157.585 16.8356 159.288 16.0527 161.431 16.0527C163.532 16.0527 165.139 16.8356 166.21 18.4014C167.076 19.665 167.515 21.1896 167.515 23.0164V23.0164ZM164.411 22.1785C164.439 21.2171 164.219 20.3792 163.779 19.6788C163.216 18.7723 162.351 18.319 161.197 18.319C160.14 18.319 159.274 18.7585 158.615 19.6376C158.079 20.338 157.75 21.1896 157.654 22.1648L164.411 22.1785V22.1785Z" fill="#808080"/>
</svg>
