<svg width="30" height="30" viewBox="0 0 30 30" fill="none" xmlns="http://www.w3.org/2000/svg">
<path d="M18.2157 23.4C17.8918 23.967 17.4238 24.4382 16.8591 24.7659C16.2943 25.0937 15.653 25.2663 15.0001 25.2663C14.3471 25.2663 13.7058 25.0937 13.1411 24.7659C12.5763 24.4382 12.1083 23.967 11.7844 23.4H1V25.2667C1 26.2568 1.39333 27.2064 2.09347 27.9066C2.79361 28.6067 3.7432 29.0001 4.73335 29.0001H25.2668C26.2569 29.0001 27.2065 28.6067 27.9067 27.9066C28.6068 27.2064 29.0001 26.2568 29.0001 25.2667V23.4H18.2157Z" stroke="white" stroke-width="1.4" stroke-linecap="round" stroke-linejoin="round"/>
<path d="M27.1328 23.4001V17.6383" stroke="white" stroke-width="1.4" stroke-linecap="round" stroke-linejoin="round"/>
<path d="M2.86719 23.4002V12.2001C2.86719 11.21 3.26052 10.2604 3.96066 9.56027C4.6608 8.86013 5.61039 8.4668 6.60054 8.4668H17.8006" stroke="white" stroke-width="1.4" stroke-linecap="round" stroke-linejoin="round"/>
<path d="M26.2008 1H20.6008C19.0544 1 17.8008 2.25361 17.8008 3.80001V15.0001C17.8008 16.5465 19.0544 17.8001 20.6008 17.8001H26.2008C27.7472 17.8001 29.0008 16.5465 29.0008 15.0001V3.80001C29.0008 2.25361 27.7472 1 26.2008 1Z" stroke="white" stroke-width="1.4" stroke-linecap="round" stroke-linejoin="round"/>
</svg>
