<svg width="30" height="30" viewBox="0 0 30 30" fill="none" xmlns="http://www.w3.org/2000/svg">
<path d="M24.0224 1H5.97799C4.94706 1 4.11133 1.83574 4.11133 2.86667V27.1333C4.11133 28.1643 4.94706 29 5.97799 29H24.0224C25.0534 29 25.8891 28.1643 25.8891 27.1333V2.86667C25.8891 1.83574 25.0534 1 24.0224 1Z" stroke="white" stroke-width="1.4" stroke-linecap="round" stroke-linejoin="round"/>
<path d="M15.0014 20.6001C16.0324 20.6001 16.8681 19.7644 16.8681 18.7334C16.8681 17.7025 16.0324 16.8668 15.0014 16.8668C13.9705 16.8668 13.1348 17.7025 13.1348 18.7334C13.1348 19.7644 13.9705 20.6001 15.0014 20.6001Z" stroke="white" stroke-width="1.4" stroke-linecap="round" stroke-linejoin="round"/>
<path d="M15.0014 8.46655C16.0324 8.46655 16.8681 7.63081 16.8681 6.59988C16.8681 5.56895 16.0324 4.73322 15.0014 4.73322C13.9705 4.73322 13.1348 5.56895 13.1348 6.59988C13.1348 7.63081 13.9705 8.46655 15.0014 8.46655Z" stroke="white" stroke-width="1.4" stroke-linecap="round" stroke-linejoin="round"/>
<path d="M15.0011 25.2667C18.6094 25.2667 21.5344 22.3416 21.5344 18.7333C21.5344 15.1251 18.6094 12.2 15.0011 12.2C11.3928 12.2 8.46777 15.1251 8.46777 18.7333C8.46777 22.3416 11.3928 25.2667 15.0011 25.2667Z" stroke="white" stroke-width="1.4" stroke-linecap="round" stroke-linejoin="round"/>
</svg>
