<svg width="41" height="33" viewBox="0 0 41 33" fill="none" xmlns="http://www.w3.org/2000/svg">
<path d="M35.7685 20.0259V3.53678C35.7685 2.86399 35.5013 2.21875 35.0255 1.74301C34.5498 1.26727 33.9046 1 33.2318 1H7.86393C7.19113 1 6.54589 1.26727 6.07016 1.74301C5.59442 2.21875 5.32715 2.86399 5.32715 3.53678V20.0259H35.7685Z" stroke="#DFDFDF" stroke-width="1.30474" stroke-linecap="round" stroke-linejoin="round"/>
<path d="M39.3554 27.8747C39.527 28.2609 39.5994 28.6839 39.5659 29.1053C39.5325 29.5266 39.3943 29.9329 39.164 30.2872C38.9336 30.6416 38.6184 30.9328 38.2469 31.1343C37.8754 31.3359 37.4594 31.4415 37.0368 31.4414H4.05859C3.63594 31.4415 3.21997 31.3359 2.84848 31.1343C2.47699 30.9328 2.16174 30.6416 1.93139 30.2872C1.70103 29.9329 1.56286 29.5266 1.52943 29.1053C1.496 28.6839 1.56837 28.2609 1.73997 27.8747L5.32698 20.0259H35.7684L39.3554 27.8747Z" stroke="#DFDFDF" stroke-width="1.30474" stroke-linecap="round" stroke-linejoin="round"/>
<path d="M18.0098 26.3678H23.0833" stroke="#DFDFDF" stroke-width="1.30474" stroke-linecap="round" stroke-linejoin="round"/>
</svg>
