<svg width="218" height="219" viewBox="0 0 218 219" fill="none" xmlns="http://www.w3.org/2000/svg">
<g clip-path="url(#clip0_2057_32332)">
<circle cx="109" cy="109.115" r="109" fill="#2F2F2F"/>
<g filter="url(#filter0_d_2057_32332)">
<rect x="35" y="74.1152" width="145" height="70" rx="7.11304" fill="black"/>
</g>
<path d="M47.1712 85.9003C47.1712 89.1864 44.4911 91.8665 41.205 91.8665C37.9072 91.8665 35.2388 89.1864 35.2388 85.9003C35.2388 82.6026 37.9072 79.9341 41.205 79.9341C44.4911 79.9341 47.1712 82.6026 47.1712 85.9003Z" fill="#1D1D1B"/>
<path d="M44.1879 100.816C44.1879 102.459 42.8478 103.799 41.2048 103.799C39.5501 103.799 38.2217 102.459 38.2217 100.816C38.2217 99.1609 39.5501 97.8325 41.2048 97.8325C42.8478 97.8325 44.1879 99.1609 44.1879 100.816Z" fill="#1D1D1B"/>
<path d="M38.2216 106.782C38.2216 108.425 36.8815 109.765 35.2385 109.765C33.5838 109.765 32.2554 108.425 32.2554 106.782C32.2554 105.127 33.5838 103.799 35.2385 103.799C36.8815 103.799 38.2216 105.127 38.2216 106.782Z" fill="#1D1D1B"/>
<path d="M50.1542 106.782C50.1542 108.425 48.8141 109.765 47.1711 109.765C45.5164 109.765 44.188 108.425 44.188 106.782C44.188 105.127 45.5164 103.799 47.1711 103.799C48.8141 103.799 50.1542 105.127 50.1542 106.782Z" fill="#1D1D1B"/>
<path d="M44.1879 112.748C44.1879 114.391 42.8478 115.731 41.2048 115.731C39.5501 115.731 38.2217 114.391 38.2217 112.748C38.2217 111.094 39.5501 109.765 41.2048 109.765C42.8478 109.765 44.1879 111.094 44.1879 112.748Z" fill="#1D1D1B"/>
<path d="M161.5 149.115H169.598C180.039 149.115 188.5 141.523 188.5 132.148V86.0828C188.5 76.7078 180.039 69.1152 169.598 69.1152H161.5V149.115Z" fill="#040404"/>
<path d="M56.5 149.115H48.4023C37.9609 149.115 29.5 141.523 29.5 132.148V86.0828C29.5 76.7078 37.9609 69.1152 48.4023 69.1152H56.5V149.115Z" fill="#040404"/>
<rect x="56.5" y="69.1152" width="105" height="80" fill="#040404"/>
<rect x="56.5" y="74.1152" width="105" height="70" rx="2" fill="#555556"/>
<g filter="url(#filter1_d_2057_32332)">
<circle cx="108" cy="109.615" r="15.5" fill="#21A2FF"/>
</g>
<circle cx="108.5" cy="109.115" r="18" fill="#21A2FF"/>
<path d="M106.548 102.991C105.216 102.171 103.5 103.13 103.5 104.695V113.536C103.5 115.101 105.216 116.06 106.548 115.24L113.732 110.819C115.001 110.038 115.001 108.194 113.732 107.413L106.548 102.991Z" fill="white"/>
<path d="M47.4975 104.568C47.4975 106.211 46.1574 107.551 44.5144 107.551C42.8713 107.551 41.5312 106.211 41.5312 104.568C41.5312 102.925 42.8713 101.585 44.5144 101.585C46.1574 101.585 47.4975 102.925 47.4975 104.568Z" fill="#424242"/>
<path d="M177.433 84.0983C177.433 85.7414 176.092 87.0814 174.449 87.0814C172.806 87.0814 171.466 85.7414 171.466 84.0983C171.466 82.4553 172.806 81.1152 174.449 81.1152C176.092 81.1152 177.433 82.4553 177.433 84.0983Z" fill="#424242"/>
<path d="M50.4803 86.6693C50.4803 89.9671 47.8118 92.6355 44.5141 92.6355C41.2163 92.6355 38.5479 89.9671 38.5479 86.6693C38.5479 83.3716 41.2163 80.7031 44.5141 80.7031C47.8118 80.7031 50.4803 83.3716 50.4803 86.6693Z" fill="#424242"/>
<path d="M180.416 113.081C180.416 116.379 177.747 119.048 174.449 119.048C171.152 119.048 168.483 116.379 168.483 113.081C168.483 109.784 171.152 107.115 174.449 107.115C177.747 107.115 180.416 109.784 180.416 113.081Z" fill="#424242"/>
<path d="M53.4635 110.534C53.4635 112.177 52.1235 113.517 50.4804 113.517C48.8374 113.517 47.4973 112.177 47.4973 110.534C47.4973 108.891 48.8374 107.551 50.4804 107.551C52.1235 107.551 53.4635 108.891 53.4635 110.534Z" fill="#424242"/>
<path d="M183.399 90.0642C183.399 91.7072 182.059 93.0473 180.416 93.0473C178.773 93.0473 177.433 91.7072 177.433 90.0642C177.433 88.4211 178.773 87.0811 180.416 87.0811C182.059 87.0811 183.399 88.4211 183.399 90.0642Z" fill="#424242"/>
<path d="M41.5311 110.534C41.5311 112.177 40.1911 113.517 38.548 113.517C36.905 113.517 35.5649 112.177 35.5649 110.534C35.5649 108.891 36.905 107.551 38.548 107.551C40.1911 107.551 41.5311 108.891 41.5311 110.534Z" fill="#424242"/>
<path d="M171.466 90.0642C171.466 91.7072 170.126 93.0473 168.483 93.0473C166.84 93.0473 165.5 91.7072 165.5 90.0642C165.5 88.4211 166.84 87.0811 168.483 87.0811C170.126 87.0811 171.466 88.4211 171.466 90.0642Z" fill="#424242"/>
<path d="M47.4975 116.5C47.4975 118.143 46.1574 119.483 44.5144 119.483C42.8713 119.483 41.5312 118.143 41.5312 116.5C41.5312 114.857 42.8713 113.517 44.5144 113.517C46.1574 113.517 47.4975 114.857 47.4975 116.5Z" fill="#424242"/>
<path d="M177.433 96.0305C177.433 97.6735 176.092 99.0136 174.449 99.0136C172.806 99.0136 171.466 97.6735 171.466 96.0305C171.466 94.3874 172.806 93.0474 174.449 93.0474C176.092 93.0474 177.433 94.3874 177.433 96.0305Z" fill="#424242"/>
</g>
<defs>
<filter id="filter0_d_2057_32332" x="-9.71053" y="36.5177" width="234.421" height="159.421" filterUnits="userSpaceOnUse" color-interpolation-filters="sRGB">
<feFlood flood-opacity="0" result="BackgroundImageFix"/>
<feColorMatrix in="SourceAlpha" type="matrix" values="0 0 0 0 0 0 0 0 0 0 0 0 0 0 0 0 0 0 127 0" result="hardAlpha"/>
<feOffset dy="7.11304"/>
<feGaussianBlur stdDeviation="22.3553"/>
<feComposite in2="hardAlpha" operator="out"/>
<feColorMatrix type="matrix" values="0 0 0 0 0 0 0 0 0 0 0 0 0 0 0 0 0 0 0.65 0"/>
<feBlend mode="normal" in2="BackgroundImageFix" result="effect1_dropShadow_2057_32332"/>
<feBlend mode="normal" in="SourceGraphic" in2="effect1_dropShadow_2057_32332" result="shape"/>
</filter>
<filter id="filter1_d_2057_32332" x="68.5" y="76.1152" width="79" height="79" filterUnits="userSpaceOnUse" color-interpolation-filters="sRGB">
<feFlood flood-opacity="0" result="BackgroundImageFix"/>
<feColorMatrix in="SourceAlpha" type="matrix" values="0 0 0 0 0 0 0 0 0 0 0 0 0 0 0 0 0 0 127 0" result="hardAlpha"/>
<feOffset dy="6"/>
<feGaussianBlur stdDeviation="12"/>
<feComposite in2="hardAlpha" operator="out"/>
<feColorMatrix type="matrix" values="0 0 0 0 0 0 0 0 0 0 0 0 0 0 0 0 0 0 0.45 0"/>
<feBlend mode="normal" in2="BackgroundImageFix" result="effect1_dropShadow_2057_32332"/>
<feBlend mode="normal" in="SourceGraphic" in2="effect1_dropShadow_2057_32332" result="shape"/>
</filter>
<clipPath id="clip0_2057_32332">
<rect width="218" height="218" fill="white" transform="translate(0 0.115234)"/>
</clipPath>
</defs>
</svg>
