<svg width="32" height="33" viewBox="0 0 32 33" fill="none" xmlns="http://www.w3.org/2000/svg">
<path d="M7.96094 1H9.98256C13.3317 1 16.0474 4.72653 16.0474 8.07569V9.0865" stroke="white" stroke-width="1.5" stroke-linecap="round" stroke-linejoin="round"/>
<path d="M6.9502 15.1514V19.1946" stroke="white" stroke-width="1.5" stroke-linecap="round" stroke-linejoin="round"/>
<path d="M4.92871 17.173H8.97196" stroke="white" stroke-width="1.5" stroke-linecap="round" stroke-linejoin="round"/>
<path d="M23.123 17.173C23.2571 17.173 23.3856 17.2262 23.4804 17.321C23.5752 17.4158 23.6285 17.5443 23.6285 17.6784" stroke="white" stroke-width="1.5" stroke-linecap="round" stroke-linejoin="round"/>
<path d="M22.6172 17.6784C22.6172 17.5443 22.6704 17.4158 22.7652 17.321C22.86 17.2262 22.9886 17.173 23.1226 17.173" stroke="white" stroke-width="1.5" stroke-linecap="round" stroke-linejoin="round"/>
<path d="M23.1226 18.1838C22.9886 18.1838 22.86 18.1306 22.7652 18.0358C22.6704 17.941 22.6172 17.8124 22.6172 17.6784" stroke="white" stroke-width="1.5" stroke-linecap="round" stroke-linejoin="round"/>
<path d="M23.6285 17.6784C23.6285 17.8124 23.5752 17.941 23.4804 18.0358C23.3856 18.1306 23.2571 18.1838 23.123 18.1838" stroke="white" stroke-width="1.5" stroke-linecap="round" stroke-linejoin="round"/>
<path d="M26.1553 14.1406C26.2893 14.1406 26.4179 14.1938 26.5127 14.2886C26.6074 14.3834 26.6607 14.5119 26.6607 14.646" stroke="white" stroke-width="1.5" stroke-linecap="round" stroke-linejoin="round"/>
<path d="M25.6504 14.646C25.6504 14.5119 25.7036 14.3834 25.7984 14.2886C25.8932 14.1938 26.0218 14.1406 26.1558 14.1406" stroke="white" stroke-width="1.5" stroke-linecap="round" stroke-linejoin="round"/>
<path d="M26.1558 15.1514C26.0218 15.1514 25.8932 15.0982 25.7984 15.0034C25.7036 14.9086 25.6504 14.78 25.6504 14.646" stroke="white" stroke-width="1.5" stroke-linecap="round" stroke-linejoin="round"/>
<path d="M26.6607 14.646C26.6607 14.78 26.6074 14.9086 26.5127 15.0034C26.4179 15.0982 26.2893 15.1514 26.1553 15.1514" stroke="white" stroke-width="1.5" stroke-linecap="round" stroke-linejoin="round"/>
<path d="M31.2095 20.2054V15.1514C31.2095 13.5429 30.5705 12.0002 29.4331 10.8628C28.2958 9.72546 26.7531 9.08649 25.1446 9.08649H6.95001C5.3415 9.08649 3.79888 9.72546 2.66149 10.8628C1.52411 12.0002 0.88513 13.5429 0.88513 15.1514V26.7717C0.861078 27.756 1.16121 28.721 1.73934 29.518C2.31747 30.3151 3.14153 30.9 4.08469 31.1829C5.06834 31.442 6.11195 31.3452 7.0311 30.9094C7.95026 30.4736 8.6858 29.727 9.10775 28.8014L12.0957 23.2379H19.9989L22.9033 28.6167C23.1904 29.2877 23.6365 29.8787 24.2031 30.3387C24.7697 30.7987 25.4398 31.1139 26.1554 31.257C26.7748 31.3654 27.4104 31.3372 28.0176 31.1741C28.6249 31.0111 29.1892 30.7173 29.671 30.3132C30.1527 29.9091 30.5403 29.4046 30.8065 28.835C31.0728 28.2653 31.2112 27.6444 31.2122 27.0156L31.2095 20.2054Z" stroke="white" stroke-width="1.5" stroke-linecap="round" stroke-linejoin="round"/>
</svg>
