<svg width="646" height="564" viewBox="0 0 646 564" fill="none" xmlns="http://www.w3.org/2000/svg">
<g clip-path="url(#clip0_2428_35866)">
<rect width="646" height="564" fill="white"/>
<g filter="url(#filter0_d_2428_35866)">
<rect width="658" height="564" fill="#2F2F2F"/>
<rect x="0.509866" y="0.509866" width="656.98" height="562.98" stroke="#2F2F2F" stroke-width="1.01973"/>
</g>
<mask id="mask0_2428_35866" style="mask-type:alpha" maskUnits="userSpaceOnUse" x="0" y="0" width="658" height="564">
<rect width="658" height="564" fill="#4A3AFF"/>
</mask>
<g mask="url(#mask0_2428_35866)">
<g clip-path="url(#clip1_2428_35866)">
<path d="M37.4958 25.7368L61.4941 17" stroke="white" stroke-width="2.44041" stroke-linecap="round" stroke-linejoin="round"/>
<path d="M38.1101 12.2255L34.9103 13.3904C34.6981 13.4677 34.5253 13.626 34.4299 13.8307C34.3345 14.0353 34.3242 14.2695 34.4015 14.4816L38.3798 25.4148L43.1795 23.6674L39.2011 12.7343C39.1239 12.5221 38.9656 12.3493 38.761 12.2539C38.5564 12.1585 38.3222 12.1483 38.1101 12.2255Z" stroke="white" stroke-width="2.44041" stroke-linecap="round" stroke-linejoin="round"/>
<path d="M42.7501 -2.14706L39.5503 -0.982146C39.3382 -0.904908 39.1654 -0.746548 39.0699 -0.541905C38.9745 -0.337262 38.9643 -0.103099 39.0415 0.109071L47.0952 22.2421L51.8949 20.4947L43.8411 -1.6383C43.7639 -1.85047 43.6056 -2.02327 43.401 -2.11868C43.1964 -2.21409 42.9622 -2.2243 42.7501 -2.14706Z" stroke="white" stroke-width="2.44041" stroke-linecap="round" stroke-linejoin="round"/>
<path d="M53.2121 -0.520107L50.0123 0.644807C49.8002 0.722045 49.6274 0.880405 49.532 1.08505C49.4365 1.28969 49.4263 1.52385 49.5035 1.73602L55.8106 19.0691L60.6103 17.3218L54.3032 -0.0113462C54.2259 -0.223517 54.0676 -0.396314 53.863 -0.491725C53.6584 -0.587136 53.4243 -0.597346 53.2121 -0.520107Z" stroke="white" stroke-width="2.44041" stroke-linecap="round" stroke-linejoin="round"/>
</g>
<g clip-path="url(#clip2_2428_35866)">
<path d="M110.551 -0.859416L110.029 -2.29273C109.55 -3.61031 109.334 -5.00946 109.396 -6.4103C109.457 -7.81114 109.793 -9.18623 110.386 -10.4571C110.979 -11.7279 111.816 -12.8696 112.849 -13.8169C113.883 -14.7643 115.093 -15.4988 116.411 -15.9784C117.728 -16.4581 119.127 -16.6735 120.528 -16.6124C121.929 -16.5514 123.304 -16.215 124.574 -15.6225C125.845 -15.03 126.986 -14.1929 127.933 -13.1592C128.881 -12.1255 129.615 -10.9153 130.094 -9.59771L130.616 -8.1644" stroke="white" stroke-width="2.44041" stroke-linecap="round" stroke-linejoin="round"/>
</g>
<g clip-path="url(#clip3_2428_35866)">
<path d="M10.8752 105.55L0.173704 109.446L-4.27244 116.259L-5.94141 111.673L-8.99897 112.786C-9.40442 112.933 -9.85189 112.914 -10.2429 112.731C-10.634 112.549 -10.9365 112.219 -11.0841 111.813L-16.6473 96.5247C-16.7948 96.1192 -16.7753 95.6717 -16.5929 95.2806C-16.4105 94.8895 -16.0803 94.5869 -15.6748 94.4393L4.19928 87.2039C4.60474 87.0563 5.0522 87.0758 5.44324 87.2581C5.83427 87.4405 6.13684 87.7707 6.28438 88.1762L11.8476 103.465C11.9952 103.87 11.9756 104.318 11.7932 104.709C11.6108 105.1 11.2806 105.403 10.8752 105.55Z" stroke="white" stroke-width="2.44041" stroke-linecap="round" stroke-linejoin="round"/>
</g>
<g clip-path="url(#clip4_2428_35866)">
<path d="M68.9682 84.4003C69.2633 85.2112 69.8685 85.8717 70.6505 86.2364C71.4326 86.6011 72.3275 86.6401 73.1384 86.3449C73.9494 86.0496 74.6098 85.4444 74.9746 84.6622C75.3393 83.88 75.3784 82.9849 75.0833 82.174C74.7883 81.363 74.1831 80.7026 73.4011 80.3379C72.619 79.9732 71.7241 79.9342 70.9131 80.2294C70.1022 80.5246 69.4418 81.1299 69.077 81.9121C68.7123 82.6943 68.6731 83.5893 68.9682 84.4003Z" stroke="white" stroke-width="2.44041" stroke-linecap="round" stroke-linejoin="round"/>
<path d="M75.4606 75.9154C73.5056 75.0039 71.2684 74.9064 69.2413 75.6444C67.2142 76.3824 65.563 77.8954 64.6512 79.8507" stroke="white" stroke-width="2.44041" stroke-linecap="round" stroke-linejoin="round"/>
<path d="M77.5265 71.4905C74.3983 70.0319 70.8188 69.8759 67.5753 71.0567C64.3318 72.2376 61.6899 74.6586 60.2309 77.7872" stroke="white" stroke-width="2.44041" stroke-linecap="round" stroke-linejoin="round"/>
<path d="M79.0154 66.8116C74.8466 65.0433 70.1622 64.9215 65.9066 66.4707C61.6511 68.02 58.1409 71.1252 56.0838 75.1602" stroke="white" stroke-width="2.44041" stroke-linecap="round" stroke-linejoin="round"/>
</g>
<g clip-path="url(#clip5_2428_35866)">
<path d="M147.216 36.3608C146.743 36.1415 146.232 36.0181 145.711 35.9977C145.19 35.9773 144.67 36.0604 144.181 36.242C143.693 36.4237 143.245 36.7004 142.864 37.0562C142.482 37.4119 142.175 37.8397 141.96 38.3148L132.56 58.4734L133.317 66.1678L139.698 61.8008L149.098 41.6421C149.324 41.1722 149.454 40.6622 149.482 40.1416C149.509 39.621 149.434 39.1 149.259 38.6089C149.084 38.1178 148.813 37.6663 148.463 37.2804C148.112 36.8945 147.689 36.582 147.216 36.3608V36.3608Z" stroke="white" stroke-width="2.44041" stroke-linecap="round" stroke-linejoin="round"/>
<path d="M141.692 38.8914L148.829 42.2191" stroke="white" stroke-width="2.44041" stroke-linecap="round" stroke-linejoin="round"/>
<path d="M132.561 58.4719L139.701 61.7937" stroke="white" stroke-width="2.44041" stroke-linecap="round" stroke-linejoin="round"/>
</g>
<g clip-path="url(#clip6_2428_35866)">
<path d="M213.174 26.5756L209.588 28.4941L208.751 24.5131L214.939 11.242C215.213 10.6554 215.708 10.2014 216.316 9.98003C216.925 9.75862 217.596 9.78789 218.182 10.0614C218.769 10.3349 219.223 10.8302 219.444 11.4384C219.665 12.0466 219.636 12.7179 219.362 13.3045L213.174 26.5756Z" stroke="white" stroke-width="2.44041" stroke-linecap="round" stroke-linejoin="round"/>
<path d="M219.795 24.2967L222.576 31.9407C222.724 32.3462 222.704 32.7937 222.522 33.1848C222.34 33.5759 222.009 33.8785 221.604 34.0261L206.317 39.5915C205.911 39.7391 205.464 39.7196 205.073 39.5373C204.682 39.355 204.379 39.0247 204.232 38.6193L198.669 23.3313C198.521 22.9258 198.541 22.4783 198.723 22.0873C198.906 21.6962 199.236 21.3936 199.641 21.2459L207.285 18.4632" stroke="white" stroke-width="2.44041" stroke-linecap="round" stroke-linejoin="round"/>
</g>
<g clip-path="url(#clip7_2428_35866)">
<path d="M290.526 -15.6446C290.495 -15.7517 290.442 -15.8512 290.371 -15.9371C290.3 -16.023 290.212 -16.0933 290.112 -16.1438C290.013 -16.1944 289.904 -16.2239 289.793 -16.2308C289.681 -16.2376 289.57 -16.2215 289.465 -16.1836L268.064 -8.39254C267.96 -8.35431 267.864 -8.29496 267.783 -8.21816C267.702 -8.14136 267.637 -8.04875 267.594 -7.94607C267.55 -7.84338 267.528 -7.73281 267.528 -7.6212C267.529 -7.50959 267.553 -7.39932 267.598 -7.29722C268.688 -4.86107 270.544 -2.84833 272.885 -1.56591C275.225 -0.283489 277.921 0.198238 280.56 -0.19418L284.231 9.89272C284.284 10.0383 284.377 10.1657 284.5 10.2601C284.623 10.3544 284.77 10.4119 284.924 10.4256C285.079 10.4393 285.234 10.4088 285.371 10.3377C285.509 10.2665 285.623 10.1576 285.701 10.0237L287.836 6.3545C287.896 6.25128 287.933 6.13604 287.944 6.01699C287.955 5.89794 287.939 5.77801 287.898 5.66574L285.157 -1.86751C287.432 -3.26351 289.189 -5.36563 290.158 -7.85314C291.128 -10.3407 291.257 -13.077 290.526 -15.6446V-15.6446Z" stroke="white" stroke-width="2.44041" stroke-linecap="round" stroke-linejoin="round"/>
</g>
<g clip-path="url(#clip8_2428_35866)">
<path d="M15.69 172.525L13.394 179.084L17.4941 178.457L20.6919 182.487L22.3906 174.645" stroke="white" stroke-width="2.44041" stroke-linecap="round" stroke-linejoin="round"/>
<path d="M30.3518 167.187L36.3254 170.736L32.7816 172.891L32.9218 178.035L26.5812 173.12" stroke="white" stroke-width="2.44041" stroke-linecap="round" stroke-linejoin="round"/>
<path d="M13.1135 168.797C13.925 171.028 15.5891 172.844 17.7398 173.847C19.8905 174.85 22.3515 174.957 24.5815 174.145C26.8116 173.333 28.6279 171.669 29.6309 169.518C30.6339 167.367 30.7415 164.905 29.93 162.675C29.1185 160.445 27.4544 158.629 25.3037 157.626C23.1531 156.623 20.692 156.516 18.462 157.328C16.232 158.139 14.4157 159.804 13.4126 161.955C12.4096 164.106 12.302 166.567 13.1135 168.797V168.797Z" stroke="white" stroke-width="2.44041" stroke-linecap="round" stroke-linejoin="round"/>
</g>
<g clip-path="url(#clip9_2428_35866)">
<path d="M79.0806 134.791L87.4254 157.724" stroke="white" stroke-width="2.44041" stroke-linecap="round" stroke-linejoin="round"/>
<path d="M79.6368 136.319L98.7466 129.362C98.9493 129.288 99.173 129.298 99.3685 129.389C99.5641 129.481 99.7153 129.646 99.7891 129.848L104.24 142.079C104.313 142.282 104.304 142.506 104.213 142.701C104.121 142.897 103.956 143.048 103.753 143.122L84.6437 150.079" stroke="white" stroke-width="2.44041" stroke-linecap="round" stroke-linejoin="round"/>
</g>
<g clip-path="url(#clip10_2428_35866)">
<path d="M161.152 130.584C160.877 131.173 160.38 131.629 159.769 131.851C159.158 132.073 158.484 132.044 157.895 131.769C157.306 131.495 156.85 130.997 156.628 130.386C156.405 129.776 156.435 129.101 156.71 128.512L160.855 119.631L165.297 121.702L161.152 130.584Z" stroke="white" stroke-width="2.44041" stroke-linecap="round" stroke-linejoin="round"/>
<path d="M168.944 108.075L163.075 120.662" stroke="white" stroke-width="2.44041" stroke-linecap="round" stroke-linejoin="round"/>
<path d="M171.115 107.285C170.931 107.677 170.6 107.981 170.192 108.129C169.785 108.278 169.336 108.258 168.943 108.075C168.55 107.891 168.247 107.56 168.098 107.152C167.95 106.745 167.97 106.296 168.153 105.903L169.881 102.202L172.841 103.582L171.115 107.285Z" stroke="white" stroke-width="2.44041" stroke-linecap="round" stroke-linejoin="round"/>
<path d="M161.892 113.828L158.694 112.332C158.714 111.538 158.502 110.755 158.084 110.08C157.666 109.404 157.06 108.866 156.34 108.53C155.499 108.141 154.551 108.054 153.653 108.281C154.234 108.735 154.645 109.372 154.817 110.089C154.99 110.806 154.914 111.56 154.602 112.229C154.291 112.897 153.762 113.44 153.103 113.769C152.443 114.099 151.691 114.195 150.97 114.041C151.244 114.604 151.644 115.095 152.14 115.477C152.635 115.859 153.213 116.121 153.826 116.243C154.44 116.364 155.074 116.342 155.678 116.178C156.281 116.013 156.839 115.711 157.307 115.295L159.507 116.321" stroke="white" stroke-width="2.44041" stroke-linecap="round" stroke-linejoin="round"/>
<path d="M168.704 120.61L171.181 121.765C171.158 122.703 171.458 123.62 172.032 124.363C172.605 125.106 173.417 125.628 174.331 125.843C175.244 126.057 176.204 125.951 177.048 125.541C177.892 125.131 178.57 124.443 178.966 123.592C179.363 122.741 179.455 121.78 179.226 120.87C178.997 119.96 178.462 119.156 177.711 118.594C176.959 118.032 176.037 117.746 175.099 117.784C174.162 117.822 173.266 118.182 172.562 118.803L169.057 117.168" stroke="white" stroke-width="2.44041" stroke-linecap="round" stroke-linejoin="round"/>
<path d="M174.891 121.692C174.925 121.618 174.98 121.557 175.049 121.515C175.118 121.473 175.198 121.452 175.279 121.456C175.36 121.459 175.437 121.487 175.503 121.535C175.568 121.582 175.617 121.648 175.645 121.724C175.673 121.8 175.677 121.883 175.658 121.961C175.639 122.04 175.596 122.111 175.537 122.165C175.477 122.22 175.403 122.256 175.323 122.268C175.243 122.28 175.161 122.268 175.088 122.234C174.99 122.188 174.914 122.105 174.877 122.004C174.84 121.902 174.845 121.79 174.891 121.692" stroke="white" stroke-width="2.44041" stroke-linecap="round" stroke-linejoin="round"/>
</g>
<g clip-path="url(#clip11_2428_35866)">
<path d="M245.985 82.2931C245.814 81.8252 245.465 81.4442 245.014 81.2338C244.563 81.0234 244.047 81.0008 243.579 81.1712L232.113 85.3454L228.969 83.2936C228.725 83.1343 228.447 83.034 228.158 83.0007C227.868 82.9674 227.575 83.002 227.301 83.1017L222.891 84.7072C222.423 84.8775 222.042 85.2267 221.832 85.678C221.621 86.1292 221.599 86.6456 221.769 87.1134L227.546 102.99C227.717 103.458 228.066 103.839 228.517 104.049C228.968 104.26 229.484 104.282 229.952 104.112L249.356 97.0479C249.824 96.8776 250.205 96.5284 250.415 96.0771C250.626 95.6258 250.648 95.1095 250.478 94.6416L245.985 82.2931Z" stroke="white" stroke-width="2.44041" stroke-linecap="round" stroke-linejoin="round"/>
</g>
<g clip-path="url(#clip12_2428_35866)">
<path d="M305.363 52.878L299.578 68.2236C299.533 68.345 299.523 68.4768 299.551 68.6033C299.578 68.7299 299.641 68.8459 299.732 68.9378C299.824 69.0296 299.939 69.0934 300.066 69.1215C300.192 69.1496 300.324 69.141 300.446 69.0966L304.903 67.4739L308.612 77.6663L314.397 62.3208C314.442 62.1995 314.451 62.0679 314.424 61.9415C314.397 61.815 314.334 61.6991 314.243 61.6072C314.152 61.5154 314.036 61.4515 313.91 61.4232C313.784 61.3948 313.652 61.4031 313.531 61.4472L309.072 63.0705L305.363 52.878Z" stroke="white" stroke-width="2.44041" stroke-linecap="round" stroke-linejoin="round"/>
</g>
<g clip-path="url(#clip13_2428_35866)">
<path d="M374.926 31.6292C374.149 31.901 373.412 32.2742 372.733 32.7392C369.698 34.7919 367.426 38.5749 366.219 42.0243C366.067 42.4865 366.075 42.9863 366.242 43.4434C366.408 43.9005 366.723 44.2884 367.136 44.5448C370.228 46.3789 374.407 47.865 378.101 47.4784C378.918 47.3966 379.721 47.2079 380.489 46.9172C381.265 46.6459 382.003 46.2737 382.683 45.8103C385.762 43.7348 388.011 39.9068 389.196 36.5139C389.347 36.0517 389.34 35.5519 389.173 35.0948C389.007 34.6377 388.692 34.2498 388.278 33.9934C385.136 32.1261 380.96 30.6906 377.319 31.0686C376.5 31.1494 375.695 31.3379 374.926 31.6292V31.6292Z" stroke="white" stroke-width="2.44041" stroke-linecap="round" stroke-linejoin="round"/>
<circle r="2.37062" transform="matrix(0.939665 -0.342096 0.341944 0.93972 377.604 38.9863)" stroke="white" stroke-width="2.44041" stroke-linecap="round" stroke-linejoin="round"/>
</g>
<g clip-path="url(#clip14_2428_35866)">
<path d="M449.128 23.2095C447.956 24.741 445.555 24.3734 444.896 22.5617L439.599 8.00374C438.94 6.1921 440.542 4.36704 442.424 4.78694L456.46 7.91951C458.199 8.30764 458.949 10.3685 457.866 11.7841L449.128 23.2095Z" stroke="white" stroke-width="2.44041" stroke-linecap="round" stroke-linejoin="round"/>
</g>
<g clip-path="url(#clip15_2428_35866)">
<path d="M524.424 -0.902871C530.757 -3.20826 534.022 -10.2109 531.718 -16.5437C529.413 -22.8764 522.412 -26.1413 516.079 -23.8359C509.747 -21.5305 506.482 -14.5279 508.786 -8.19511C511.09 -1.86233 518.092 1.40252 524.424 -0.902871Z" stroke="white" stroke-width="2.44041" stroke-linecap="round" stroke-linejoin="round"/>
</g>
<g clip-path="url(#clip16_2428_35866)">
<path d="M48.5069 268.444L59.7626 244.134" stroke="white" stroke-width="2.44041" stroke-linecap="square"/>
<path d="M66.4705 260.716L60.1764 243.419L42.8804 249.716" stroke="white" stroke-width="2.44041" stroke-linecap="square"/>
</g>
<g clip-path="url(#clip17_2428_35866)">
<path d="M137.94 235.885L113.684 224.64" stroke="white" stroke-width="2.44041" stroke-linecap="square"/>
<path d="M119.213 241.514L112.919 224.217L130.215 217.92" stroke="white" stroke-width="2.44041" stroke-linecap="square"/>
</g>
<g clip-path="url(#clip18_2428_35866)">
<path d="M197.922 191.972L191.358 206.049L205.433 212.612" stroke="white" stroke-width="2.44041" stroke-linecap="square"/>
</g>
<g clip-path="url(#clip19_2428_35866)">
<path d="M266.202 190.488L272.766 176.412L258.691 169.849" stroke="white" stroke-width="2.44041" stroke-linecap="square"/>
</g>
<path d="M329.208 151.318L340.155 156.423L345.26 145.474" stroke="white" stroke-width="2.44041" stroke-linecap="square"/>
<path d="M403.217 133.464L408.322 122.516L419.269 127.62" stroke="white" stroke-width="2.44041" stroke-linecap="square"/>
<g clip-path="url(#clip20_2428_35866)">
<path d="M474.307 114.725L487.435 86.572" stroke="white" stroke-width="2.44041" stroke-linecap="square"/>
<path d="M494.945 107.212L466.797 94.0857" stroke="white" stroke-width="2.44041" stroke-linecap="square"/>
</g>
<g clip-path="url(#clip21_2428_35866)">
<path d="M548.053 64.0349L555.564 84.6746" stroke="white" stroke-width="2.44041" stroke-linecap="square"/>
<path d="M541.489 78.1116L562.128 70.5979" stroke="white" stroke-width="2.44041" stroke-linecap="square"/>
</g>
<path d="M612.578 52.2312L633.216 44.7175" stroke="white" stroke-width="2.44041" stroke-linecap="square"/>
<g clip-path="url(#clip22_2428_35866)">
<path d="M6.46922 345.611C12.8019 343.306 17.1883 339.383 16.2665 336.85C15.3447 334.317 9.46383 334.132 3.13114 336.438C-3.20155 338.743 -7.58795 342.666 -6.66616 345.199C-5.74438 347.732 0.136536 347.917 6.46922 345.611Z" stroke="white" stroke-width="2.44041" stroke-linecap="square"/>
<path d="M-6.66614 345.199L-4.16295 352.078C-3.24127 354.611 2.63996 354.796 8.97244 352.491C15.3049 350.185 19.6918 346.263 18.7697 343.729L16.2666 336.85" stroke="white" stroke-width="2.44041" stroke-linecap="square"/>
<path d="M-4.16284 352.078L-1.65928 358.958C-0.737598 361.491 5.14363 361.676 11.4761 359.371C17.8086 357.065 22.1951 353.142 21.2734 350.609L18.7699 343.729" stroke="white" stroke-width="2.44041" stroke-linecap="square"/>
</g>
<g clip-path="url(#clip23_2428_35866)">
<path d="M92.0807 329.952L71.9051 337.278L63.604 314.427L77.0843 309.522L86.1689 314.226L92.0807 329.952Z" stroke="white" stroke-width="2.44041" stroke-linecap="square"/>
<path d="M74.832 318.446L73.2664 322.64L70.9832 321.886" stroke="white" stroke-width="2.44041" stroke-linecap="square"/>
<path d="M77.264 325.129L75.6984 329.324L73.4152 328.569" stroke="white" stroke-width="2.44041" stroke-linecap="square"/>
<path d="M79.1372 320.505L83.7235 318.836" stroke="white" stroke-width="2.44041" stroke-linecap="square"/>
<path d="M81.3624 326.621L85.9488 324.951" stroke="white" stroke-width="2.44041" stroke-linecap="square"/>
</g>
<g clip-path="url(#clip24_2428_35866)">
<path d="M158.623 282.295L153.331 284.221L160.392 303.626L165.684 301.7L158.623 282.295Z" stroke="white" stroke-width="2.44041" stroke-linecap="square"/>
<path d="M143.361 301.836L138.069 303.763L140.636 310.819L145.928 308.892L143.361 301.836Z" stroke="white" stroke-width="2.44041" stroke-linecap="square"/>
<path d="M151.313 292.948L146.021 294.874L150.514 307.223L155.806 305.296L151.313 292.948Z" stroke="white" stroke-width="2.44041" stroke-linecap="square"/>
</g>
<g clip-path="url(#clip25_2428_35866)">
<path d="M214.858 285.795L214.336 284.362C213.857 283.044 213.642 281.645 213.703 280.244C213.764 278.844 214.101 277.469 214.693 276.198C215.286 274.927 216.123 273.785 217.157 272.838C218.19 271.89 219.401 271.156 220.718 270.676C222.036 270.197 223.435 269.981 224.835 270.042C226.236 270.103 227.611 270.44 228.882 271.032C230.152 271.625 231.294 272.462 232.241 273.496C233.188 274.529 233.922 275.739 234.402 277.057L234.923 278.49" stroke="white" stroke-width="2.44041" stroke-linecap="square"/>
<path d="M220.718 270.676C222.239 270.123 223.477 268.988 224.161 267.521C224.845 266.055 224.918 264.377 224.365 262.856C223.811 261.336 222.677 260.097 221.21 259.413C219.744 258.73 218.066 258.656 216.546 259.21C215.025 259.764 213.787 260.898 213.103 262.365C212.419 263.832 212.346 265.51 212.899 267.03C213.452 268.551 214.587 269.789 216.053 270.473C217.52 271.157 219.198 271.23 220.718 270.676V270.676Z" stroke="white" stroke-width="2.44041" stroke-linecap="square"/>
</g>
<g clip-path="url(#clip26_2428_35866)">
<path d="M294.8 230.72L280.468 235.938C280.468 235.938 280.935 237.222 281.511 238.805L287.769 256.005C288.345 257.588 288.813 258.871 288.813 258.871L303.145 253.653L302.102 250.787L295.843 233.587L294.8 230.72Z" stroke="white" stroke-width="2.44041" stroke-linecap="square"/>
<line x1="1.2202" y1="-1.2202" x2="4.8129" y2="-1.2202" transform="matrix(0.939665 -0.342096 0.341944 0.93972 291.827 253.676)" stroke="white" stroke-width="2.44041" stroke-linecap="square"/>
</g>
<g clip-path="url(#clip27_2428_35866)">
<path d="M372.751 217.456L368.579 205.989C368.579 205.989 367.455 206.398 367.05 206.546L351.763 212.111L350.234 212.668L354.406 224.134L372.751 217.456Z" stroke="white" stroke-width="2.44041" stroke-linecap="square"/>
<path d="M377.416 223.549L353.971 232.084L354.406 224.134L372.751 217.456L377.416 223.549Z" stroke="white" stroke-width="2.44041" stroke-linecap="square"/>
<path d="M363.441 225.174L366.498 224.06" stroke="white" stroke-width="2.44041" stroke-linecap="square"/>
</g>
<g clip-path="url(#clip28_2428_35866)">
<path d="M441.276 177.394L418.344 185.743L419.179 188.036L424.186 201.796L425.02 204.089L447.952 195.741L447.118 193.447L442.111 179.687L441.276 177.394Z" stroke="white" stroke-width="2.44041" stroke-linecap="square"/>
<path d="M436.486 199.915L438.155 204.501" stroke="white" stroke-width="2.44041" stroke-linecap="square"/>
<path d="M433.569 206.171L442.741 202.831" stroke="white" stroke-width="2.44041" stroke-linecap="square"/>
</g>
<g clip-path="url(#clip29_2428_35866)">
<path d="M500.898 155.688L507.082 162.351L515.551 160.273L511.552 168.245L516.329 176.041L507.672 174.304L502.157 181.201L500.806 172.157L492.62 168.622L500.443 164.768L500.898 155.688Z" stroke="white" stroke-width="2.44041" stroke-linecap="square"/>
</g>
<g clip-path="url(#clip30_2428_35866)">
<path d="M581.995 126.164L563.215 133.013L571.556 155.935L578.434 145.64L590.319 149.105L581.995 126.164Z" stroke="white" stroke-width="2.44041" stroke-linecap="square"/>
</g>
<g clip-path="url(#clip31_2428_35866)">
<path d="M649.503 103.751L653.325 102.359C654.38 101.975 655.548 102.52 655.932 103.575L660.104 115.041C660.488 116.096 659.943 117.264 658.888 117.648L643.601 123.214C642.546 123.598 641.378 123.053 640.994 121.998L636.822 110.532C636.438 109.477 636.983 108.309 638.037 107.925L641.859 106.534" stroke="white" stroke-width="2.44041" stroke-linecap="square"/>
<path d="M638.823 124.953L640.734 124.258C641.262 124.066 641.534 123.482 641.342 122.954L635.779 107.665C635.587 107.138 635.003 106.866 634.476 107.058L632.565 107.753C632.037 107.945 631.765 108.529 631.957 109.057L637.52 124.346C637.712 124.873 638.296 125.145 638.823 124.953Z" stroke="white" stroke-width="2.44041" stroke-linecap="square"/>
<path d="M641.164 104.623L648.808 101.84L650.894 107.573L643.25 110.356L641.164 104.623Z" stroke="white" stroke-width="2.44041" stroke-linecap="square"/>
<path d="M639.779 124.605L640.474 126.517C641.243 128.628 643.575 129.716 645.687 128.947C647.799 128.179 648.887 125.845 648.118 123.734L647.423 121.823" stroke="white" stroke-width="2.44041" stroke-linecap="square"/>
</g>
<g clip-path="url(#clip32_2428_35866)">
<path d="M40.0595 402.24L17.1281 410.589C17.1281 410.589 17.3769 411.273 17.6842 412.118L23.8037 428.935C24.111 429.78 24.3598 430.464 24.3598 430.464L47.2917 422.116L46.7354 420.587L40.6158 403.769L40.0595 402.24Z" stroke="white" stroke-width="2.44041" stroke-linecap="square"/>
<path d="M19.353 416.704L42.2847 408.356" stroke="white" stroke-width="2.44041" stroke-linecap="square"/>
<path d="M24.0774 410.656L22.1302 405.305" stroke="white" stroke-width="2.44041" stroke-linecap="square"/>
<path d="M34.7789 406.76L32.8318 401.409" stroke="white" stroke-width="2.44041" stroke-linecap="square"/>
</g>
<g clip-path="url(#clip33_2428_35866)">
<path d="M116.75 391.785L104.481 396.101L100.035 402.914L98.366 398.327L93.5138 399.985L87.0434 381.673L110.067 373.603L116.75 391.785Z" stroke="white" stroke-width="2.44041" stroke-linecap="square"/>
</g>
<g clip-path="url(#clip34_2428_35866)">
<path d="M173.276 371.055C173.571 371.866 174.176 372.526 174.958 372.891C175.74 373.256 176.635 373.295 177.446 373C178.257 372.704 178.917 372.099 179.282 371.317C179.647 370.535 179.686 369.64 179.391 368.829C179.096 368.018 178.49 367.357 177.708 366.993C176.926 366.628 176.031 366.589 175.221 366.884C174.41 367.179 173.749 367.785 173.384 368.567C173.02 369.349 172.981 370.244 173.276 371.055Z" stroke="white" stroke-width="2.44041" stroke-linecap="square"/>
<path d="M179.768 362.57C177.813 361.659 175.576 361.561 173.549 362.299C171.522 363.037 169.87 364.55 168.959 366.506" stroke="white" stroke-width="2.44041" stroke-linecap="square"/>
<path d="M181.834 358.145C178.706 356.687 175.126 356.531 171.883 357.712C168.639 358.892 165.997 361.313 164.538 364.442" stroke="white" stroke-width="2.44041" stroke-linecap="square"/>
<path d="M183.323 353.466C179.154 351.698 174.47 351.576 170.214 353.126C165.958 354.675 162.448 357.78 160.391 361.815" stroke="white" stroke-width="2.44041" stroke-linecap="square"/>
</g>
<g clip-path="url(#clip35_2428_35866)">
<path d="M251.524 323.016C251.051 322.796 250.539 322.673 250.018 322.652C249.497 322.632 248.977 322.715 248.489 322.897C248 323.078 247.552 323.355 247.171 323.711C246.79 324.067 246.483 324.494 246.268 324.97L236.868 345.128L237.625 352.823L244.005 348.456L253.405 328.297C253.631 327.827 253.762 327.317 253.789 326.796C253.817 326.276 253.741 325.755 253.566 325.264C253.391 324.773 253.12 324.321 252.77 323.935C252.419 323.549 251.996 323.237 251.524 323.016V323.016Z" stroke="white" stroke-width="2.44041" stroke-linecap="square"/>
<path d="M246 325.546L253.136 328.874" stroke="white" stroke-width="2.44041" stroke-linecap="square"/>
<path d="M236.868 345.127L244.008 348.449" stroke="white" stroke-width="2.44041" stroke-linecap="square"/>
</g>
<g clip-path="url(#clip36_2428_35866)">
<path d="M317.481 313.231L313.895 315.149L313.058 311.168L319.247 297.897C319.52 297.31 320.016 296.856 320.624 296.635C321.232 296.414 321.903 296.443 322.49 296.716C323.076 296.99 323.53 297.485 323.751 298.093C323.973 298.702 323.943 299.373 323.67 299.96L317.481 313.231Z" stroke="white" stroke-width="2.44041" stroke-linecap="square"/>
<path d="M324.102 310.952L327.451 320.239L309.214 326.881L302.589 308.379L311.592 305.118" stroke="white" stroke-width="2.44041" stroke-linecap="square"/>
</g>
<g clip-path="url(#clip37_2428_35866)">
<path d="M384.617 285.323L384.452 284.869L384.02 284.651L372.242 278.718L371.944 277.9L393.867 269.918L394.164 270.737L388.954 282.854L388.763 283.299L388.929 283.754L393.273 295.692L388.02 294.675L384.617 285.323Z" stroke="white" stroke-width="2.44041"/>
</g>
<g clip-path="url(#clip38_2428_35866)">
<path d="M445.604 260.657L447.829 266.773" stroke="white" stroke-width="2.44041" stroke-linecap="square"/>
<path d="M465.754 244.664L473.543 266.068" stroke="white" stroke-width="2.44041" stroke-linecap="square"/>
<path d="M446.583 261.902L465.92 246.481" stroke="white" stroke-width="2.44041" stroke-linecap="square"/>
<path d="M447.776 265.565L472.38 264.312" stroke="white" stroke-width="2.44041" stroke-linecap="square"/>
<path d="M452.481 265.913C452.481 265.913 453.81 267.718 455.058 268.536C456.307 269.354 457.777 269.769 459.269 269.723C460.761 269.678 462.203 269.174 463.4 268.281C464.596 267.388 465.83 265.179 465.83 265.179" stroke="white" stroke-width="2.44041" stroke-linecap="square"/>
</g>
<g clip-path="url(#clip39_2428_35866)">
<path d="M526.736 221.597L530.313 231.426L540.141 227.848C539.192 225.241 537.247 223.118 534.733 221.946C532.22 220.774 529.343 220.648 526.736 221.597Z" stroke="white" stroke-width="2.44041" stroke-linecap="square"/>
<path d="M524.653 226.066C522.709 226.774 521.018 228.042 519.795 229.71C518.572 231.379 517.871 233.372 517.781 235.439C517.69 237.506 518.215 239.553 519.288 241.321C520.361 243.09 521.934 244.5 523.808 245.374C525.683 246.248 527.775 246.547 529.819 246.232C531.864 245.917 533.769 245.003 535.294 243.606C536.819 242.208 537.896 240.389 538.387 238.38C538.879 236.371 538.764 234.26 538.057 232.317L528.229 235.895L524.653 226.066Z" stroke="white" stroke-width="2.44041" stroke-linecap="square"/>
</g>
<g clip-path="url(#clip40_2428_35866)">
<path d="M612.69 204.199L610.061 196.975L602.838 199.605" stroke="white" stroke-width="2.44041" stroke-linecap="square"/>
<path d="M609.765 197.636L603.693 209.449L596.514 207.205L590.656 218.584" stroke="white" stroke-width="2.44041" stroke-linecap="square"/>
</g>
<g clip-path="url(#clip41_2428_35866)">
<path d="M-10.0836 498.076C-7.90263 499.148 -6.64729 500.576 -5.6313 502.784C-4.61531 504.992 -4.3906 507.482 -4.99496 509.837C-5.59932 512.191 -6.99588 514.265 -8.94973 515.711C-10.9036 517.156 -13.2955 517.885 -15.7233 517.774" stroke="white" stroke-width="2.44041" stroke-linecap="square"/>
</g>
<g clip-path="url(#clip42_2428_35866)">
<path d="M57.8142 486.933C57.7189 486.968 57.636 487.03 57.576 487.112C57.5161 487.193 57.4817 487.291 57.4773 487.392C57.4729 487.494 57.4986 487.594 57.5512 487.681C57.6038 487.767 57.6809 487.837 57.7728 487.879C57.8647 487.922 57.9672 487.937 58.0674 487.922C58.1676 487.906 58.261 487.861 58.3358 487.793C58.4105 487.724 58.4633 487.635 58.4874 487.537C58.5115 487.438 58.5059 487.335 58.4712 487.239C58.4247 487.112 58.3294 487.008 58.2061 486.95C58.0829 486.893 57.9419 486.886 57.8142 486.933Z" fill="white" stroke="white" stroke-width="1.74157" stroke-linecap="square"/>
<path d="M57.0126 484.729L55.0275 479.274" stroke="white" stroke-width="1.74157" stroke-linecap="square"/>
<path d="M69.8652 487.951L49.2655 495.451L52.3263 471.257L69.8652 487.951Z" stroke="white" stroke-width="2.44041"/>
</g>
<g clip-path="url(#clip43_2428_35866)">
<path d="M120.153 459.619L117.701 465.739L121.801 465.112L124.999 469.142L126.701 461.611" stroke="white" stroke-width="2.44041" stroke-linecap="square"/>
<path d="M135.103 454.088L140.633 457.39L137.089 459.546L137.229 464.689L131.162 459.898" stroke="white" stroke-width="2.44041" stroke-linecap="square"/>
<path d="M117.421 455.452C118.232 457.682 119.896 459.499 122.047 460.502C124.198 461.504 126.659 461.612 128.889 460.8C131.119 459.988 132.935 458.323 133.938 456.172C134.941 454.021 135.049 451.56 134.237 449.33C133.426 447.1 131.762 445.284 129.611 444.281C127.46 443.278 124.999 443.17 122.769 443.982C120.539 444.794 118.723 446.459 117.72 448.61C116.717 450.761 116.609 453.222 117.421 455.452Z" stroke="white" stroke-width="2.44041" stroke-linecap="square"/>
</g>
<g clip-path="url(#clip44_2428_35866)">
<path d="M183.388 421.445L191.733 444.378" stroke="white" stroke-width="2.44041" stroke-linecap="square"/>
<path d="M183.944 422.974L203.818 415.739L208.547 428.734L208.825 429.499L188.951 436.734" stroke="white" stroke-width="2.44041" stroke-linecap="square"/>
</g>
<g clip-path="url(#clip45_2428_35866)">
<path d="M277.508 392.5L275.371 397.083L271.549 398.474L270.159 394.652L272.296 390.069C271.441 390.054 270.574 390.173 269.723 390.482C266.029 391.827 264.125 395.912 265.469 399.606C265.844 400.636 266.447 401.509 267.181 402.231L263.503 410.13C263.288 410.171 263.075 410.216 262.865 410.293C260.754 411.062 259.666 413.395 260.434 415.507C261.202 417.618 263.535 418.706 265.647 417.937C267.758 417.169 268.846 414.836 268.078 412.724C268.003 412.519 267.903 412.333 267.802 412.149L271.486 404.237C272.506 404.333 273.563 404.234 274.591 403.86C278.285 402.515 280.19 398.43 278.846 394.736C278.536 393.886 278.069 393.144 277.508 392.5Z" stroke="white" stroke-width="2.44041" stroke-linecap="square"/>
</g>
<g clip-path="url(#clip46_2428_35866)">
<path d="M336.835 371.066L337.293 371.28L337.768 371.107L349.7 366.763L355.528 382.78L331.665 391.468L324.884 372.835L333.725 369.616L336.835 371.066Z" stroke="white" stroke-width="2.44041"/>
</g>
<g clip-path="url(#clip47_2428_35866)">
<path d="M417.65 347.12L411.044 349.525L407.438 339.615L404.94 356.735L411.545 354.33L415.151 364.239L417.65 347.12Z" stroke="white" stroke-width="2.34336" stroke-linecap="square"/>
</g>
<g clip-path="url(#clip48_2428_35866)">
<path d="M469.971 330.565C469.971 330.565 470.488 322.198 479.755 318.824C489.022 315.451 494.795 321.528 494.795 321.528C494.795 321.528 494.278 329.895 485.011 333.268C475.744 336.642 469.971 330.565 469.971 330.565Z" stroke="white" stroke-width="2.44041" stroke-miterlimit="10"/>
<path d="M481.397 323.339C480.679 323.6 480.094 324.136 479.771 324.829C479.447 325.522 479.413 326.314 479.674 327.033C479.936 327.751 480.472 328.336 481.164 328.659C481.857 328.982 482.649 329.017 483.368 328.755C484.086 328.494 484.671 327.957 484.994 327.265C485.317 326.572 485.352 325.779 485.09 325.061C484.829 324.343 484.293 323.758 483.6 323.435C482.908 323.112 482.115 323.077 481.397 323.339V323.339Z" stroke="white" stroke-width="2.44041" stroke-miterlimit="10"/>
</g>
<g clip-path="url(#clip49_2428_35866)">
<path d="M550.193 312.63L542.95 292.725L562.142 297.008L550.193 312.63Z" stroke="white" stroke-width="2.44041" stroke-miterlimit="10"/>
</g>
<g clip-path="url(#clip50_2428_35866)">
<path d="M626.645 280.019L623.864 272.375" stroke="white" stroke-width="2.44041" stroke-miterlimit="10"/>
<path d="M622.821 269.508L622.125 267.597L622.821 269.508ZM620.387 262.819C617.346 263.926 614.869 266.196 613.501 269.129C612.133 272.062 611.987 275.419 613.093 278.46C614.2 281.501 616.469 283.978 619.402 285.345C622.335 286.713 625.691 286.859 628.732 285.752C631.773 284.645 634.249 282.375 635.617 279.442C636.985 276.509 637.132 273.152 636.025 270.111C634.918 267.07 632.649 264.593 629.716 263.226C626.784 261.858 623.428 261.712 620.387 262.819V262.819Z" stroke="white" stroke-width="2.44041" stroke-miterlimit="10"/>
</g>
<g clip-path="url(#clip51_2428_35866)">
<path d="M101.555 582.798C102.01 582.234 102.74 581.968 103.451 582.107L113.63 584.107C115.324 584.439 116.585 582.57 115.641 581.123L109.972 572.437C109.576 571.83 109.548 571.054 109.901 570.42L114.951 561.345C115.791 559.836 114.402 558.06 112.735 558.511L102.728 561.222C102.03 561.411 101.283 561.198 100.79 560.668L93.7321 553.091C92.5572 551.83 90.4434 552.599 90.3539 554.321L89.8168 564.663C89.7792 565.387 89.3445 566.03 88.6874 566.334L79.2798 570.691C77.7127 571.417 77.7901 573.671 79.4034 574.287L89.1041 577.991C89.7811 578.25 90.2591 578.862 90.3457 579.582L91.5851 589.881C91.7914 591.596 93.9587 592.218 95.0429 590.873L101.555 582.798Z" fill="white"/>
</g>
<g clip-path="url(#clip52_2428_35866)">
<path d="M192.139 531.725C191.996 531.702 191.851 531.718 191.716 531.771C191.582 531.824 191.465 531.913 191.377 532.027L181.358 546.241C180.519 547.309 179.397 548.122 178.12 548.587C176.843 549.052 175.462 549.15 174.132 548.872L157.323 544.424C157.182 544.394 157.035 544.402 156.899 544.448C156.762 544.493 156.64 544.575 156.545 544.683C156.45 544.792 156.386 544.924 156.36 545.066C156.334 545.208 156.346 545.354 156.396 545.49L161.072 558.34C161.511 559.546 162.411 560.528 163.574 561.071C164.737 561.613 166.067 561.671 167.273 561.232L194.555 551.3C195.761 550.861 196.743 549.961 197.286 548.797C197.828 547.634 197.886 546.303 197.448 545.097L192.771 532.247C192.723 532.111 192.638 531.991 192.527 531.899C192.415 531.807 192.281 531.747 192.139 531.725Z" fill="white"/>
<path d="M190.277 525.393C189.839 524.187 188.939 523.204 187.776 522.662C186.613 522.12 185.282 522.062 184.076 522.501L156.794 532.433C155.588 532.872 154.606 533.772 154.063 534.935C153.521 536.099 153.463 537.43 153.902 538.636C153.916 538.674 153.939 538.708 153.97 538.735C154 538.761 154.037 538.78 154.077 538.788L175.129 544.142C175.572 544.235 176.033 544.202 176.458 544.047C176.883 543.893 177.257 543.622 177.536 543.266L190.232 525.626C190.259 525.594 190.277 525.556 190.285 525.515C190.293 525.474 190.29 525.432 190.277 525.393Z" fill="white"/>
</g>
<g clip-path="url(#clip53_2428_35866)">
<path d="M272.927 514.938L267.637 512.47C267.073 512.207 266.463 512.057 265.842 512.03C265.22 512.003 264.6 512.098 264.015 512.311C263.43 512.524 262.894 512.85 262.435 513.27C261.977 513.691 261.606 514.197 261.343 514.762L260.84 515.84C255.754 513.993 250.842 511.699 246.162 508.984L246.665 507.905C247.194 506.767 247.25 505.465 246.821 504.286C246.391 503.106 245.512 502.145 244.375 501.613L239.079 499.153C237.936 498.651 236.643 498.609 235.47 499.036C234.297 499.464 233.333 500.327 232.78 501.446L231.435 504.347C230.79 505.743 230.645 507.319 231.024 508.81C231.403 510.301 232.284 511.616 233.518 512.534C243.302 519.755 254.431 524.946 266.251 527.801C267.749 528.148 269.321 527.973 270.706 527.306C272.092 526.638 273.208 525.519 273.871 524.131L275.224 521.228C275.487 520.664 275.637 520.055 275.665 519.433C275.692 518.812 275.597 518.192 275.384 517.607C275.172 517.023 274.846 516.486 274.426 516.028C274.005 515.57 273.499 515.199 272.935 514.937L272.927 514.938Z" fill="white"/>
</g>
<g clip-path="url(#clip54_2428_35866)">
<path d="M349.019 478.296C347.71 474.699 345.364 471.57 342.277 469.307C339.19 467.043 335.501 465.746 331.677 465.579C327.853 465.412 324.065 466.384 320.792 468.37C317.519 470.356 314.909 473.268 313.291 476.738C311.673 480.208 311.12 484.08 311.702 487.863C312.284 491.647 313.975 495.173 316.561 497.996C319.147 500.818 322.512 502.81 326.23 503.72C329.948 504.63 333.853 504.416 337.45 503.106L337.64 503.037C342.41 501.295 346.294 497.731 348.44 493.129C350.587 488.526 350.82 483.26 349.088 478.485L349.054 478.39L349.019 478.296ZM345.988 479.4C346.478 480.749 346.784 482.158 346.896 483.589C346.906 483.704 346.89 483.819 346.851 483.928C346.811 484.037 346.749 484.135 346.668 484.218C346.588 484.3 346.49 484.365 346.382 484.406C346.275 484.448 346.159 484.465 346.044 484.459C344.961 484.394 343.919 484.017 343.045 483.374L337.848 479.553C337.313 479.16 336.689 478.905 336.032 478.811C335.375 478.717 334.705 478.787 334.082 479.014L333.425 479.253C332.32 479.655 331.1 479.602 330.034 479.105C328.968 478.608 328.143 477.707 327.74 476.602C327.338 475.496 327.392 474.276 327.889 473.21C328.386 472.144 329.286 471.319 330.392 470.916L334.593 469.387C334.75 469.329 334.921 469.322 335.082 469.367C337.57 470.044 339.859 471.309 341.757 473.055C343.654 474.801 345.105 476.977 345.988 479.4ZM314.929 487.54C314.901 487.356 314.939 487.168 315.034 487.008C315.129 486.848 315.277 486.726 315.452 486.663L322.026 484.27C322.722 484.014 323.462 483.899 324.203 483.931C324.944 483.964 325.671 484.143 326.342 484.458L328.655 485.538C329.959 486.147 330.982 487.232 331.513 488.57C332.045 489.908 332.045 491.398 331.514 492.737L330.298 495.804C329.934 496.723 329.919 497.743 330.258 498.672L330.714 499.925C330.76 500.051 330.773 500.186 330.754 500.319C330.734 500.451 330.682 500.577 330.602 500.684C330.522 500.791 330.416 500.877 330.294 500.933C330.173 500.989 330.039 501.014 329.906 501.006C326.761 500.826 323.737 499.73 321.208 497.851C318.679 495.973 316.756 493.395 315.675 490.435C315.335 489.496 315.085 488.527 314.929 487.54Z" fill="white"/>
</g>
<g clip-path="url(#clip55_2428_35866)">
<path d="M417.271 448.903L416.417 449.214L414.677 444.432C413.77 441.941 411.911 439.912 409.509 438.791C407.106 437.671 404.357 437.551 401.866 438.458C399.375 439.365 397.346 441.224 396.225 443.627C395.105 446.03 394.985 448.78 395.891 451.271L397.631 456.053L396.777 456.364C395.872 456.694 395.134 457.37 394.726 458.244C394.319 459.117 394.275 460.117 394.605 461.023L400.198 476.394C400.528 477.3 401.204 478.038 402.077 478.445C402.951 478.852 403.951 478.896 404.856 478.566L425.35 471.105C426.256 470.776 426.993 470.099 427.401 469.226C427.808 468.352 427.852 467.352 427.522 466.446L421.929 451.075C421.6 450.169 420.924 449.432 420.05 449.024C419.176 448.617 418.177 448.573 417.271 448.903ZM411.685 465.443C411.01 465.688 410.276 465.729 409.578 465.558C408.88 465.387 408.248 465.013 407.762 464.483C407.277 463.953 406.959 463.291 406.85 462.58C406.74 461.869 406.844 461.142 407.148 460.491C407.452 459.839 407.942 459.292 408.557 458.919C409.171 458.546 409.883 458.364 410.601 458.395C411.319 458.426 412.012 458.67 412.592 459.095C413.171 459.52 413.612 460.108 413.858 460.783C414.187 461.689 414.144 462.689 413.736 463.563C413.329 464.437 412.591 465.113 411.685 465.443ZM402.755 454.188L401.015 449.406C400.603 448.273 400.657 447.024 401.166 445.931C401.676 444.839 402.598 443.994 403.73 443.582C404.863 443.169 406.112 443.224 407.204 443.733C408.296 444.242 409.141 445.165 409.553 446.297L411.294 451.079L402.755 454.188Z" fill="white"/>
</g>
<g clip-path="url(#clip56_2428_35866)">
<path d="M492.756 446.566C492.989 446.478 493.186 446.315 493.317 446.103C493.759 445.377 503.852 428.543 500.781 420.103C499.277 415.968 496.191 412.6 492.204 410.741C488.216 408.882 483.653 408.683 479.519 410.188C475.384 411.693 472.016 414.779 470.157 418.768C468.297 422.756 468.097 427.319 469.602 431.454C472.673 439.894 491.223 446.3 492.028 446.572C492.265 446.65 492.52 446.648 492.756 446.566ZM482.922 419.542C483.95 419.168 485.066 419.107 486.128 419.367C487.19 419.627 488.152 420.196 488.891 421.003C489.63 421.809 490.113 422.816 490.279 423.897C490.445 424.979 490.287 426.085 489.825 427.076C489.363 428.067 488.617 428.899 487.682 429.467C486.747 430.035 485.665 430.312 484.572 430.264C483.479 430.217 482.425 429.846 481.543 429.199C480.661 428.553 479.991 427.659 479.617 426.631C479.115 425.253 479.182 423.732 479.802 422.402C480.422 421.073 481.544 420.044 482.922 419.542Z" fill="white"/>
</g>
<g clip-path="url(#clip57_2428_35866)">
<path d="M578.247 390.968L576.096 390.981C575.786 390.987 575.479 390.926 575.194 390.802C574.91 390.679 574.656 390.495 574.449 390.264C574.237 390.042 574.073 389.778 573.968 389.489C573.863 389.201 573.819 388.893 573.839 388.587L574.151 386.386C574.226 385.602 574.057 384.814 573.667 384.13C573.276 383.446 572.683 382.899 571.969 382.566C571.255 382.234 570.455 382.13 569.68 382.271C568.905 382.411 568.192 382.788 567.64 383.351L566.116 384.898C565.892 385.106 565.627 385.267 565.34 385.372C565.052 385.477 564.746 385.523 564.44 385.508C564.131 385.492 563.829 385.413 563.552 385.276C563.275 385.138 563.03 384.945 562.831 384.708L561.453 383.037C560.95 382.431 560.271 381.996 559.51 381.79C558.75 381.585 557.944 381.619 557.204 381.888C556.463 382.158 555.824 382.65 555.373 383.296C554.923 383.943 554.683 384.713 554.686 385.501L554.646 387.739C554.645 388.048 554.582 388.354 554.458 388.638C554.335 388.921 554.154 389.176 553.928 389.386C553.703 389.595 553.439 389.756 553.151 389.861C552.863 389.966 552.557 390.012 552.251 389.997L550.073 389.746C549.289 389.67 548.5 389.84 547.816 390.23C547.132 390.621 546.586 391.215 546.253 391.929C545.92 392.643 545.817 393.442 545.957 394.218C546.097 394.993 546.474 395.706 547.037 396.258L548.583 397.782C548.796 398.004 548.959 398.267 549.064 398.556C549.169 398.845 549.213 399.152 549.193 399.458C549.184 399.768 549.107 400.072 548.969 400.35C548.831 400.628 548.634 400.872 548.393 401.067L546.737 402.44C546.131 402.944 545.696 403.622 545.49 404.383C545.285 405.144 545.319 405.949 545.588 406.69C545.858 407.43 546.349 408.07 546.996 408.52C547.642 408.971 548.412 409.211 549.2 409.207L551.35 409.194C551.66 409.188 551.968 409.249 552.252 409.373C552.536 409.497 552.791 409.681 552.997 409.912C553.209 410.134 553.373 410.397 553.478 410.686C553.583 410.975 553.627 411.282 553.607 411.589L553.402 413.75C553.3 414.547 553.452 415.355 553.836 416.06C554.221 416.765 554.818 417.33 555.543 417.675C556.268 418.02 557.084 418.128 557.873 417.981C558.663 417.835 559.386 417.443 559.94 416.862L561.469 415.33C561.689 415.114 561.952 414.948 562.241 414.843C562.531 414.738 562.839 414.695 563.146 414.719C563.455 414.732 563.758 414.81 564.035 414.948C564.312 415.086 564.557 415.281 564.754 415.52L566.127 417.175C566.63 417.781 567.309 418.217 568.07 418.422C568.83 418.628 569.636 418.594 570.376 418.324C571.117 418.054 571.756 417.563 572.206 416.916C572.657 416.27 572.897 415.5 572.894 414.712L572.881 412.561C572.878 412.251 572.94 411.945 573.064 411.661C573.188 411.377 573.37 411.123 573.599 410.914C573.818 410.698 574.082 410.532 574.371 410.427C574.66 410.322 574.969 410.28 575.275 410.304L577.432 410.494C578.242 410.612 579.069 410.465 579.79 410.076C580.511 409.687 581.087 409.076 581.433 408.333C581.779 407.591 581.877 406.757 581.712 405.954C581.547 405.152 581.127 404.424 580.516 403.879L578.969 402.355C578.757 402.133 578.593 401.87 578.488 401.581C578.383 401.292 578.339 400.985 578.359 400.679C578.369 400.369 578.445 400.064 578.583 399.787C578.722 399.509 578.918 399.265 579.159 399.07L580.815 397.697C581.421 397.193 581.856 396.515 582.062 395.754C582.268 394.993 582.234 394.187 581.964 393.447C581.695 392.706 581.203 392.067 580.557 391.617C579.91 391.166 579.141 390.926 578.353 390.93L578.247 390.968ZM566.371 407.318C564.934 407.802 563.39 407.87 561.916 407.513C560.443 407.157 559.1 406.391 558.043 405.303C557.356 404.556 556.824 403.681 556.476 402.727C556.128 401.774 555.972 400.761 556.016 399.747C556.06 398.733 556.304 397.737 556.733 396.818C557.163 395.898 557.769 395.072 558.519 394.387C560.041 393.027 562.034 392.316 564.073 392.405C566.112 392.493 568.035 393.375 569.434 394.861C570.12 395.608 570.653 396.484 571.001 397.437C571.349 398.391 571.505 399.404 571.461 400.418C571.417 401.432 571.173 402.427 570.743 403.347C570.314 404.267 569.707 405.093 568.958 405.777C568.213 406.466 567.332 406.99 566.371 407.318Z" fill="white"/>
</g>
<g clip-path="url(#clip58_2428_35866)">
<path d="M660.63 374.473C660.599 374.397 660.548 374.33 660.482 374.28C660.417 374.23 660.339 374.197 660.257 374.187C660.173 374.17 660.086 374.177 660.005 374.206C659.925 374.235 659.854 374.286 659.8 374.353C657.487 378.227 651.815 381.885 645.885 384.044C639.955 386.202 633.242 387.054 628.998 385.567C628.914 385.55 628.827 385.557 628.746 385.586C628.666 385.616 628.594 385.667 628.541 385.734C628.485 385.794 628.446 385.869 628.428 385.949C628.41 386.03 628.414 386.114 628.439 386.193L629.5 389.107C630.862 392.851 639.166 393.263 648.061 390.025C656.956 386.786 663.053 381.132 661.691 377.387L660.63 374.473Z" fill="white"/>
<path d="M626.744 381.533C628.106 385.278 636.41 385.689 645.305 382.451C654.2 379.213 660.297 373.558 658.935 369.814L657.874 366.899C657.843 366.823 657.792 366.756 657.726 366.706C657.661 366.656 657.583 366.624 657.501 366.613C657.417 366.596 657.33 366.603 657.249 366.632C657.169 366.662 657.098 366.713 657.044 366.78C654.731 370.653 649.059 374.311 643.129 376.47C637.199 378.629 630.486 379.48 626.242 377.993C626.158 377.976 626.071 377.983 625.99 378.013C625.91 378.042 625.838 378.093 625.785 378.16C625.729 378.221 625.69 378.295 625.672 378.376C625.654 378.456 625.658 378.54 625.683 378.619L626.744 381.533Z" fill="white"/>
<path d="M640.373 368.896C634.443 371.055 627.73 371.906 623.486 370.419C623.402 370.403 623.315 370.409 623.234 370.439C623.154 370.468 623.083 370.519 623.029 370.586C622.982 370.632 622.945 370.688 622.921 370.75C622.898 370.811 622.887 370.877 622.89 370.943L623.969 373.909C625.332 377.653 633.636 378.064 642.531 374.826C651.426 371.588 657.523 365.934 656.16 362.189L655.081 359.224C655.05 359.148 654.999 359.081 654.933 359.031C654.868 358.98 654.79 358.948 654.708 358.937C654.624 358.921 654.537 358.927 654.456 358.957C654.376 358.986 654.305 359.037 654.251 359.104C651.975 363.079 646.303 366.737 640.373 368.896Z" fill="white"/>
<path d="M639.756 367.202C648.646 363.965 654.748 358.308 653.386 354.565C652.024 350.821 643.713 350.411 634.824 353.647C625.935 356.883 619.833 362.541 621.195 366.284C622.557 370.027 630.867 370.438 639.756 367.202Z" fill="white"/>
</g>
<g clip-path="url(#clip59_2428_35866)">
<path d="M339.062 561.935L374.047 549.199C374.228 549.133 374.375 548.998 374.457 548.823C374.538 548.649 374.547 548.449 374.481 548.268L373.717 546.17C373.587 545.802 373.385 545.463 373.123 545.173C372.861 544.882 372.544 544.647 372.191 544.48C371.837 544.314 371.454 544.218 371.064 544.2C370.674 544.183 370.283 544.242 369.916 544.376L339.127 555.585C338.756 555.716 338.415 555.92 338.124 556.184C337.833 556.448 337.597 556.768 337.431 557.125C337.265 557.481 337.171 557.867 337.156 558.26C337.141 558.653 337.204 559.045 337.342 559.413L338.105 561.511C338.139 561.603 338.19 561.687 338.257 561.759C338.323 561.83 338.404 561.887 338.493 561.927C338.582 561.967 338.679 561.988 338.776 561.989C338.874 561.991 338.971 561.972 339.062 561.935Z" fill="white"/>
<path d="M380.846 565.762L376.256 553.147C376.19 552.966 376.055 552.819 375.881 552.737C375.706 552.656 375.507 552.647 375.326 552.713L340.34 565.45C340.247 565.48 340.161 565.528 340.087 565.592C340.014 565.656 339.953 565.734 339.91 565.822C339.867 565.91 339.843 566.005 339.837 566.103C339.832 566.2 339.847 566.298 339.88 566.39L344.471 579.005C344.601 579.375 344.805 579.714 345.069 580.004C345.333 580.294 345.652 580.527 346.008 580.691C346.364 580.855 346.749 580.946 347.141 580.959C347.533 580.971 347.923 580.905 348.289 580.764L379.078 569.554C379.445 569.425 379.783 569.223 380.072 568.961C380.36 568.699 380.593 568.383 380.758 568.029C380.923 567.676 381.015 567.294 381.031 566.905C381.046 566.515 380.983 566.127 380.846 565.762ZM357.454 571.1L350.452 573.649C350.096 573.726 349.724 573.672 349.405 573.496C349.086 573.32 348.842 573.034 348.718 572.692C348.593 572.35 348.597 571.974 348.728 571.634C348.859 571.294 349.109 571.013 349.431 570.843L356.433 568.294C356.789 568.217 357.161 568.271 357.48 568.447C357.799 568.624 358.043 568.909 358.168 569.251C358.292 569.594 358.289 569.97 358.158 570.309C358.026 570.649 357.777 570.93 357.454 571.1Z" fill="white"/>
</g>
<g clip-path="url(#clip60_2428_35866)">
<path d="M430.124 516.115C426.526 517.425 423.398 519.772 421.134 522.859C418.871 525.947 417.573 529.636 417.406 533.461C417.239 537.286 418.209 541.074 420.195 544.347C422.181 547.62 425.092 550.23 428.561 551.848C432.031 553.466 435.902 554.018 439.685 553.435C443.469 552.853 446.995 551.161 449.817 548.575C452.64 545.988 454.632 542.623 455.542 538.904C456.452 535.185 456.239 531.28 454.93 527.683C453.175 522.859 449.575 518.93 444.923 516.761C440.271 514.591 434.947 514.359 430.124 516.115V516.115ZM447.503 539.347C447.422 539.544 447.303 539.724 447.152 539.875C447.002 540.025 446.823 540.145 446.625 540.226C446.428 540.308 446.217 540.349 446.004 540.348C445.791 540.348 445.58 540.304 445.384 540.222L435.301 536.099C435.104 536.003 434.928 535.868 434.785 535.701C434.642 535.535 434.534 535.341 434.469 535.132L431.435 526.795C431.289 526.393 431.308 525.95 431.489 525.562C431.67 525.174 431.997 524.874 432.399 524.728C432.801 524.581 433.245 524.601 433.633 524.782C434.02 524.962 434.32 525.29 434.467 525.692L437.257 533.361L446.619 537.249C447.014 537.41 447.329 537.722 447.494 538.115C447.66 538.509 447.663 538.952 447.503 539.347Z" fill="white"/>
</g>
<g clip-path="url(#clip61_2428_35866)">
<path d="M522.761 518.437L515.971 520.909C515.882 520.945 515.808 521.012 515.764 521.097C515.719 521.183 515.707 521.281 515.729 521.375C515.772 521.519 515.824 521.661 515.883 521.799C516.249 522.804 516.999 523.623 517.968 524.075C518.937 524.527 520.046 524.575 521.051 524.209C522.056 523.843 522.874 523.093 523.326 522.124C523.778 521.155 523.827 520.045 523.461 519.04C523.417 518.896 523.366 518.755 523.307 518.616C523.283 518.568 523.25 518.526 523.21 518.491C523.169 518.456 523.122 518.429 523.071 518.412C523.021 518.396 522.967 518.389 522.914 518.394C522.861 518.398 522.809 518.413 522.761 518.437Z" fill="white"/>
<path d="M532.74 511.851C529.742 509.036 527.447 505.556 526.04 501.691L525.62 500.54C524.842 498.263 523.516 496.212 521.759 494.568C520.003 492.924 517.869 491.737 515.546 491.11C514.222 490.81 512.85 490.778 511.513 491.016L510.884 489.288C510.665 488.685 510.215 488.194 509.633 487.923C509.052 487.652 508.386 487.623 507.784 487.842C507.181 488.062 506.689 488.512 506.418 489.093C506.147 489.675 506.118 490.341 506.337 490.944L506.972 492.687C505.506 493.556 504.268 494.759 503.358 496.199C502.223 498.12 501.536 500.272 501.35 502.495C501.163 504.718 501.481 506.954 502.279 509.037L502.698 510.189C504.104 514.055 504.582 518.196 504.094 522.28C504.075 522.414 504.09 522.55 504.136 522.677C504.182 522.804 504.259 522.918 504.359 523.008C504.474 523.095 504.609 523.152 504.751 523.172C504.894 523.193 505.039 523.176 505.174 523.123L532.455 513.191C532.585 513.142 532.7 513.061 532.791 512.956C532.881 512.851 532.945 512.725 532.975 512.59C532.999 512.457 532.991 512.32 532.95 512.191C532.909 512.063 532.837 511.946 532.74 511.851Z" fill="white"/>
</g>
<g clip-path="url(#clip62_2428_35866)">
<path d="M601.761 469.069L579.019 477.349C578.818 477.422 578.654 477.572 578.564 477.766C578.474 477.96 578.464 478.182 578.537 478.383L585.434 497.336C585.726 498.14 586.326 498.795 587.102 499.157C587.878 499.518 588.765 499.557 589.569 499.264L607.763 492.641C608.567 492.348 609.222 491.748 609.584 490.972C609.946 490.196 609.984 489.309 609.692 488.504L602.79 469.536C602.714 469.339 602.563 469.18 602.371 469.093C602.179 469.005 601.96 468.997 601.761 469.069ZM594.082 491.612C594.192 491.913 594.177 492.246 594.041 492.537C593.906 492.828 593.66 493.053 593.359 493.163C593.057 493.273 592.724 493.258 592.433 493.122C592.142 492.987 591.917 492.741 591.808 492.44L587.046 479.354C586.936 479.053 586.951 478.72 587.087 478.429C587.222 478.138 587.468 477.913 587.77 477.803C588.071 477.694 588.404 477.708 588.695 477.844C588.986 477.979 589.211 478.225 589.32 478.527L594.082 491.612ZM601.663 488.852C601.772 489.153 601.758 489.486 601.622 489.777C601.486 490.068 601.241 490.293 600.939 490.403C600.638 490.513 600.305 490.498 600.014 490.363C599.723 490.227 599.498 489.981 599.388 489.68L594.627 476.595C594.517 476.293 594.532 475.96 594.667 475.669C594.803 475.378 595.049 475.153 595.35 475.043C595.652 474.934 595.985 474.948 596.276 475.084C596.566 475.219 596.791 475.465 596.901 475.767L601.663 488.852Z" fill="white"/>
<path d="M601.625 461.993C599.325 461.793 597.008 462.014 594.788 462.645C593.798 461.158 592.337 460.048 590.64 459.491C588.942 458.934 587.107 458.964 585.429 459.575C583.751 460.186 582.326 461.343 581.384 462.861C580.441 464.378 580.036 466.168 580.233 467.944C578.203 468.874 576.34 470.132 574.72 471.668C574.29 472.075 573.98 472.593 573.825 473.164C573.669 473.736 573.674 474.339 573.838 474.908C573.985 475.31 574.285 475.638 574.673 475.818C575.06 475.999 575.504 476.019 575.906 475.872L603.197 465.937C603.599 465.79 603.927 465.49 604.107 465.102C604.288 464.714 604.308 464.271 604.161 463.869C603.954 463.351 603.607 462.902 603.159 462.571C602.711 462.239 602.18 462.039 601.625 461.993ZM586.528 462.596C587.341 462.292 588.221 462.221 589.072 462.391C589.922 462.561 590.708 462.964 591.342 463.556C588.658 464.353 586.026 465.311 583.458 466.426C583.552 465.562 583.891 464.742 584.435 464.063C584.979 463.385 585.705 462.875 586.528 462.596Z" fill="white"/>
</g>
<g clip-path="url(#clip63_2428_35866)">
<path d="M686.936 439.703C686.852 439.471 686.715 439.262 686.537 439.092C686.359 438.922 686.144 438.795 685.909 438.72L664.547 431.905C664.208 431.798 663.842 431.806 663.508 431.927C663.173 432.049 662.888 432.278 662.698 432.579L650.712 451.534C650.58 451.742 650.498 451.978 650.471 452.223C650.444 452.467 650.473 452.715 650.557 452.947L658.004 473.412C658.15 473.814 658.45 474.141 658.838 474.322C659.225 474.503 659.669 474.522 660.071 474.376L672.198 469.961C672.399 469.888 672.562 469.738 672.653 469.544C672.743 469.35 672.753 469.128 672.68 468.927L670.197 462.105C669.832 461.1 669.88 459.991 670.332 459.022C670.784 458.052 671.603 457.302 672.608 456.936C673.613 456.57 674.722 456.619 675.691 457.07C676.661 457.522 677.411 458.341 677.776 459.346L680.259 466.168C680.332 466.369 680.482 466.532 680.676 466.623C680.87 466.713 681.091 466.723 681.292 466.65L693.419 462.235C693.821 462.089 694.148 461.789 694.329 461.401C694.51 461.013 694.529 460.569 694.383 460.167L686.936 439.703Z" fill="white"/>
</g>
<g clip-path="url(#clip64_2428_35866)">
<path d="M557.572 569.257L544.122 562.985C543.945 562.896 543.749 562.85 543.55 562.849C543.351 562.849 543.155 562.895 542.977 562.983C542.8 563.077 542.646 563.208 542.526 563.368C542.406 563.527 542.322 563.711 542.28 563.907L540.825 571.417C540.767 571.705 540.809 572.004 540.945 572.264C541.08 572.525 541.301 572.731 541.57 572.849L551.657 577.552C551.81 577.631 551.978 577.676 552.15 577.686C552.321 577.695 552.493 577.669 552.654 577.608C552.882 577.531 553.082 577.39 553.232 577.202L558.05 571.26C558.173 571.103 558.26 570.92 558.305 570.725C558.35 570.531 558.351 570.328 558.31 570.133C558.263 569.94 558.172 569.76 558.044 569.608C557.916 569.456 557.754 569.336 557.572 569.257Z" fill="white"/>
</g>
<g clip-path="url(#clip65_2428_35866)">
<path d="M603.357 560.495L628.34 571.937C629.127 572.286 630.018 572.317 630.827 572.021C631.248 571.882 631.637 571.661 631.971 571.369C632.305 571.077 632.577 570.722 632.772 570.323L639.775 555.278C639.974 554.868 640.087 554.42 640.106 553.964C640.125 553.507 640.05 553.052 639.885 552.626C639.72 552.2 639.469 551.812 639.148 551.488C638.826 551.163 638.441 550.909 638.017 550.74L613.227 539.439L613.115 539.374C611.751 538.802 610.229 538.73 608.818 539.171L598.674 542.864C597.846 543.166 597.172 543.783 596.799 544.582C596.427 545.38 596.387 546.294 596.688 547.122L600.414 557.36C600.995 558.719 602.038 559.829 603.357 560.495ZM605.994 550.839C605.839 550.374 605.824 549.874 605.952 549.401C606.079 548.928 606.343 548.503 606.711 548.18C607.078 547.856 607.533 547.648 608.019 547.581C608.504 547.515 608.998 547.593 609.439 547.806C609.88 548.018 610.249 548.357 610.499 548.778C610.749 549.199 610.869 549.685 610.845 550.174C610.82 550.663 610.652 551.134 610.361 551.529C610.07 551.923 609.67 552.223 609.209 552.39C608.897 552.504 608.564 552.554 608.232 552.538C607.9 552.521 607.574 552.438 607.274 552.293C606.974 552.149 606.707 551.946 606.487 551.696C606.267 551.446 606.099 551.155 605.994 550.839Z" fill="white"/>
</g>
</g>
</g>
<defs>
<filter id="filter0_d_2428_35866" x="-12.2368" y="-10.1973" width="682.474" height="588.474" filterUnits="userSpaceOnUse" color-interpolation-filters="sRGB">
<feFlood flood-opacity="0" result="BackgroundImageFix"/>
<feColorMatrix in="SourceAlpha" type="matrix" values="0 0 0 0 0 0 0 0 0 0 0 0 0 0 0 0 0 0 127 0" result="hardAlpha"/>
<feOffset dy="2.03946"/>
<feGaussianBlur stdDeviation="6.11839"/>
<feComposite in2="hardAlpha" operator="out"/>
<feColorMatrix type="matrix" values="0 0 0 0 0.078875 0 0 0 0 0.0770833 0 0 0 0 0.166667 0 0 0 0.08 0"/>
<feBlend mode="normal" in2="BackgroundImageFix" result="effect1_dropShadow_2428_35866"/>
<feBlend mode="normal" in="SourceGraphic" in2="effect1_dropShadow_2428_35866" result="shape"/>
</filter>
<clipPath id="clip0_2428_35866">
<rect width="646" height="564" fill="white"/>
</clipPath>
<clipPath id="clip1_2428_35866">
<rect width="29.2849" height="29.2849" fill="white" transform="matrix(0.939665 -0.342096 0.341944 0.93972 26.5566 1.15137)"/>
</clipPath>
<clipPath id="clip2_2428_35866">
<rect width="29.2849" height="29.2849" fill="white" transform="matrix(0.939665 -0.342096 0.341944 0.93972 97.6449 -24.729)"/>
</clipPath>
<clipPath id="clip3_2428_35866">
<rect width="29.2849" height="29.2849" fill="white" transform="matrix(0.939665 -0.342096 0.341944 0.93972 -20.3315 93.5376)"/>
</clipPath>
<clipPath id="clip4_2428_35866">
<rect width="29.2849" height="29.2849" fill="white" transform="matrix(0.939665 -0.342096 0.341944 0.93972 50.7566 67.657)"/>
</clipPath>
<clipPath id="clip5_2428_35866">
<rect width="29.2849" height="29.2849" fill="white" transform="matrix(0.939665 -0.342096 0.341944 0.93972 121.845 41.7766)"/>
</clipPath>
<clipPath id="clip6_2428_35866">
<rect width="29.2849" height="29.2849" fill="white" transform="matrix(0.939665 -0.342096 0.341944 0.93972 192.933 15.896)"/>
</clipPath>
<clipPath id="clip7_2428_35866">
<rect width="29.2849" height="29.2849" fill="white" transform="matrix(0.939665 -0.342096 0.341944 0.93972 264.021 -9.98438)"/>
</clipPath>
<clipPath id="clip8_2428_35866">
<rect width="29.2849" height="29.2849" fill="white" transform="matrix(0.939665 -0.342096 0.341944 0.93972 3.86853 160.043)"/>
</clipPath>
<clipPath id="clip9_2428_35866">
<rect width="29.2849" height="29.2849" fill="white" transform="matrix(0.939665 -0.342096 0.341944 0.93972 74.9567 134.163)"/>
</clipPath>
<clipPath id="clip10_2428_35866">
<rect width="29.2849" height="29.2849" fill="white" transform="matrix(0.939665 -0.342096 0.341944 0.93972 146.045 108.282)"/>
</clipPath>
<clipPath id="clip11_2428_35866">
<rect width="29.2849" height="29.2849" fill="white" transform="matrix(0.939665 -0.342096 0.341944 0.93972 217.133 82.4019)"/>
</clipPath>
<clipPath id="clip12_2428_35866">
<rect width="29.2849" height="29.2849" fill="white" transform="matrix(0.939665 -0.342096 0.341944 0.93972 288.221 56.5215)"/>
</clipPath>
<clipPath id="clip13_2428_35866">
<rect width="29.2849" height="29.2849" fill="white" transform="matrix(0.939665 -0.342096 0.341944 0.93972 359.309 30.6409)"/>
</clipPath>
<clipPath id="clip14_2428_35866">
<rect width="29.2849" height="29.2849" fill="white" transform="matrix(0.939665 -0.342096 0.341944 0.93972 430.398 4.7605)"/>
</clipPath>
<clipPath id="clip15_2428_35866">
<rect width="29.2849" height="29.2849" fill="white" transform="matrix(0.939665 -0.342096 0.341944 0.93972 501.486 -21.1201)"/>
</clipPath>
<clipPath id="clip16_2428_35866">
<rect width="29.2849" height="29.2849" fill="white" transform="matrix(0.939665 -0.342096 0.341944 0.93972 35.5758 247.181)"/>
</clipPath>
<clipPath id="clip17_2428_35866">
<rect width="29.2849" height="29.2849" fill="white" transform="matrix(0.939665 -0.342096 0.341944 0.93972 106.664 221.3)"/>
</clipPath>
<clipPath id="clip18_2428_35866">
<rect width="29.2849" height="29.2849" fill="white" transform="matrix(0.939665 -0.342096 0.341944 0.93972 177.752 195.42)"/>
</clipPath>
<clipPath id="clip19_2428_35866">
<rect width="29.2849" height="29.2849" fill="white" transform="matrix(0.939665 -0.342096 0.341944 0.93972 248.84 169.539)"/>
</clipPath>
<clipPath id="clip20_2428_35866">
<rect width="29.2849" height="29.2849" fill="white" transform="matrix(0.939665 -0.342096 0.341944 0.93972 462.105 91.8979)"/>
</clipPath>
<clipPath id="clip21_2428_35866">
<rect width="29.2849" height="29.2849" fill="white" transform="matrix(0.939665 -0.342096 0.341944 0.93972 533.193 66.0173)"/>
</clipPath>
<clipPath id="clip22_2428_35866">
<rect width="29.2849" height="29.2849" fill="white" transform="matrix(0.939665 -0.342096 0.341944 0.93972 -11.3124 339.567)"/>
</clipPath>
<clipPath id="clip23_2428_35866">
<rect width="29.2849" height="29.2849" fill="white" transform="matrix(0.939665 -0.342096 0.341944 0.93972 59.7759 313.687)"/>
</clipPath>
<clipPath id="clip24_2428_35866">
<rect width="29.2849" height="29.2849" fill="white" transform="matrix(0.939665 -0.342096 0.341944 0.93972 130.864 287.806)"/>
</clipPath>
<clipPath id="clip25_2428_35866">
<rect width="29.2849" height="29.2849" fill="white" transform="matrix(0.939665 -0.342096 0.341944 0.93972 201.952 261.926)"/>
</clipPath>
<clipPath id="clip26_2428_35866">
<rect width="29.2849" height="29.2849" fill="white" transform="matrix(0.939665 -0.342096 0.341944 0.93972 273.04 236.045)"/>
</clipPath>
<clipPath id="clip27_2428_35866">
<rect width="29.2849" height="29.2849" fill="white" transform="matrix(0.939665 -0.342096 0.341944 0.93972 344.129 210.165)"/>
</clipPath>
<clipPath id="clip28_2428_35866">
<rect width="29.2849" height="29.2849" fill="white" transform="matrix(0.939665 -0.342096 0.341944 0.93972 415.217 184.284)"/>
</clipPath>
<clipPath id="clip29_2428_35866">
<rect width="29.2849" height="29.2849" fill="white" transform="matrix(0.939665 -0.342096 0.341944 0.93972 486.305 158.404)"/>
</clipPath>
<clipPath id="clip30_2428_35866">
<rect width="29.2849" height="29.2849" fill="white" transform="matrix(0.939665 -0.342096 0.341944 0.93972 557.393 132.523)"/>
</clipPath>
<clipPath id="clip31_2428_35866">
<rect width="29.2849" height="29.2849" fill="white" transform="matrix(0.939665 -0.342096 0.341944 0.93972 628.481 106.643)"/>
</clipPath>
<clipPath id="clip32_2428_35866">
<rect width="29.2849" height="29.2849" fill="white" transform="matrix(0.939665 -0.342096 0.341944 0.93972 12.8876 406.073)"/>
</clipPath>
<clipPath id="clip33_2428_35866">
<rect width="29.2849" height="29.2849" fill="white" transform="matrix(0.939665 -0.342096 0.341944 0.93972 83.9758 380.192)"/>
</clipPath>
<clipPath id="clip34_2428_35866">
<rect width="29.2849" height="29.2849" fill="white" transform="matrix(0.939665 -0.342096 0.341944 0.93972 155.064 354.312)"/>
</clipPath>
<clipPath id="clip35_2428_35866">
<rect width="29.2849" height="29.2849" fill="white" transform="matrix(0.939665 -0.342096 0.341944 0.93972 226.152 328.431)"/>
</clipPath>
<clipPath id="clip36_2428_35866">
<rect width="29.2849" height="29.2849" fill="white" transform="matrix(0.939665 -0.342096 0.341944 0.93972 297.24 302.551)"/>
</clipPath>
<clipPath id="clip37_2428_35866">
<rect width="29.2849" height="29.2849" fill="white" transform="matrix(0.939665 -0.342096 0.341944 0.93972 368.329 276.67)"/>
</clipPath>
<clipPath id="clip38_2428_35866">
<rect width="29.2849" height="29.2849" fill="white" transform="matrix(0.939665 -0.342096 0.341944 0.93972 439.417 250.79)"/>
</clipPath>
<clipPath id="clip39_2428_35866">
<rect width="29.2849" height="29.2849" fill="white" transform="matrix(0.939665 -0.342096 0.341944 0.93972 510.505 224.909)"/>
</clipPath>
<clipPath id="clip40_2428_35866">
<rect width="29.2849" height="29.2849" fill="white" transform="matrix(0.939665 -0.342096 0.341944 0.93972 581.593 199.029)"/>
</clipPath>
<clipPath id="clip41_2428_35866">
<rect width="29.2849" height="29.2849" fill="white" transform="matrix(0.939665 -0.342096 0.341944 0.93972 -34.0005 498.459)"/>
</clipPath>
<clipPath id="clip42_2428_35866">
<rect width="29.2849" height="29.2849" fill="white" transform="matrix(0.939665 -0.342096 0.341944 0.93972 37.0876 472.579)"/>
</clipPath>
<clipPath id="clip43_2428_35866">
<rect width="29.2849" height="29.2849" fill="white" transform="matrix(0.939665 -0.342096 0.341944 0.93972 108.176 446.698)"/>
</clipPath>
<clipPath id="clip44_2428_35866">
<rect width="29.2849" height="29.2849" fill="white" transform="matrix(0.939665 -0.342096 0.341944 0.93972 179.264 420.818)"/>
</clipPath>
<clipPath id="clip45_2428_35866">
<rect width="29.2849" height="29.2849" fill="white" transform="matrix(0.939665 -0.342096 0.341944 0.93972 250.352 394.937)"/>
</clipPath>
<clipPath id="clip46_2428_35866">
<rect width="29.2849" height="29.2849" fill="white" transform="matrix(0.939665 -0.342096 0.341944 0.93972 321.44 369.057)"/>
</clipPath>
<clipPath id="clip47_2428_35866">
<rect width="29.2849" height="29.2849" fill="white" transform="matrix(0.939665 -0.342096 0.341944 0.93972 392.529 343.176)"/>
</clipPath>
<clipPath id="clip48_2428_35866">
<rect width="29.2849" height="29.2849" fill="white" transform="matrix(0.939665 -0.342096 0.341944 0.93972 463.617 317.296)"/>
</clipPath>
<clipPath id="clip49_2428_35866">
<rect width="29.2849" height="29.2849" fill="white" transform="matrix(0.939665 -0.342096 0.341944 0.93972 534.705 291.415)"/>
</clipPath>
<clipPath id="clip50_2428_35866">
<rect width="29.2849" height="29.2849" fill="white" transform="matrix(0.939665 -0.342096 0.341944 0.93972 605.793 265.535)"/>
</clipPath>
<clipPath id="clip51_2428_35866">
<rect width="38.7114" height="38.7114" fill="white" transform="matrix(0.939665 -0.342096 0.341944 0.93972 73.0669 558.161)"/>
</clipPath>
<clipPath id="clip52_2428_35866">
<rect width="38.7114" height="38.7114" fill="white" transform="matrix(0.939665 -0.342096 0.341944 0.93972 150.72 529.891)"/>
</clipPath>
<clipPath id="clip53_2428_35866">
<rect width="38.7114" height="38.7114" fill="white" transform="matrix(0.939665 -0.342096 0.341944 0.93972 228.372 501.62)"/>
</clipPath>
<clipPath id="clip54_2428_35866">
<rect width="38.7114" height="38.7114" fill="white" transform="matrix(0.939665 -0.342096 0.341944 0.93972 306.025 473.35)"/>
</clipPath>
<clipPath id="clip55_2428_35866">
<rect width="38.7114" height="38.7114" fill="white" transform="matrix(0.939665 -0.342096 0.341944 0.93972 383.678 445.08)"/>
</clipPath>
<clipPath id="clip56_2428_35866">
<rect width="38.7114" height="38.7114" fill="white" transform="matrix(0.939665 -0.342096 0.341944 0.93972 461.331 416.809)"/>
</clipPath>
<clipPath id="clip57_2428_35866">
<rect width="38.7114" height="38.7114" fill="white" transform="matrix(0.939665 -0.342096 0.341944 0.93972 538.984 388.539)"/>
</clipPath>
<clipPath id="clip58_2428_35866">
<rect width="38.7114" height="38.7114" fill="white" transform="matrix(0.939665 -0.342096 0.341944 0.93972 616.636 360.268)"/>
</clipPath>
<clipPath id="clip59_2428_35866">
<rect width="38.7114" height="38.7114" fill="white" transform="matrix(0.939665 -0.342096 0.341944 0.93972 334.283 551.007)"/>
</clipPath>
<clipPath id="clip60_2428_35866">
<rect width="38.7114" height="38.7114" fill="white" transform="matrix(0.939665 -0.342096 0.341944 0.93972 411.936 522.737)"/>
</clipPath>
<clipPath id="clip61_2428_35866">
<rect width="38.7114" height="38.7114" fill="white" transform="matrix(0.939665 -0.342096 0.341944 0.93972 489.589 494.467)"/>
</clipPath>
<clipPath id="clip62_2428_35866">
<rect width="38.7114" height="38.7114" fill="white" transform="matrix(0.939665 -0.342096 0.341944 0.93972 567.241 466.196)"/>
</clipPath>
<clipPath id="clip63_2428_35866">
<rect width="38.7114" height="38.7114" fill="white" transform="matrix(0.939665 -0.342096 0.341944 0.93972 644.894 437.926)"/>
</clipPath>
<clipPath id="clip64_2428_35866">
<rect width="38.7114" height="38.7114" fill="white" transform="matrix(0.939665 -0.342096 0.341944 0.93972 517.846 572.124)"/>
</clipPath>
<clipPath id="clip65_2428_35866">
<rect width="38.7114" height="38.7114" fill="white" transform="matrix(0.939665 -0.342096 0.341944 0.93972 595.499 543.854)"/>
</clipPath>
</defs>
</svg>
