<svg width="42" height="42" viewBox="0 0 42 42" fill="none" xmlns="http://www.w3.org/2000/svg">
<path d="M1.78125 17.1563C1.78125 19.1753 2.17894 21.1746 2.9516 23.04C3.72427 24.9054 4.85678 26.6003 6.28448 28.028C7.71218 29.4557 9.40711 30.5882 11.2725 31.3609C13.1379 32.1336 15.1372 32.5313 17.1563 32.5313C19.1753 32.5313 21.1746 32.1336 23.04 31.3609C24.9054 30.5882 26.6003 29.4557 28.028 28.028C29.4557 26.6003 30.5882 24.9054 31.3609 23.04C32.1336 21.1746 32.5313 19.1753 32.5313 17.1563C32.5313 15.1372 32.1336 13.1379 31.3609 11.2725C30.5882 9.40711 29.4557 7.71218 28.028 6.28448C26.6003 4.85678 24.9054 3.72427 23.04 2.9516C21.1746 2.17894 19.1753 1.78125 17.1563 1.78125C15.1372 1.78125 13.1379 2.17894 11.2725 2.9516C9.40711 3.72427 7.71218 4.85678 6.28448 6.28448C4.85678 7.71218 3.72427 9.40711 2.9516 11.2725C2.17894 13.1379 1.78125 15.1372 1.78125 17.1563V17.1563Z" stroke="#DFDFDF" stroke-width="1.30474" stroke-linecap="round" stroke-linejoin="round"/>
<path d="M29.9688 25.6587V35.0938C29.9688 36.4531 30.5087 37.7566 31.4698 38.7177C32.431 39.6789 33.7345 40.2188 35.0938 40.2188C36.453 40.2188 37.7565 39.6789 38.7177 38.7177C39.6788 37.7566 40.2188 36.4531 40.2188 35.0938V32.5313" stroke="#DFDFDF" stroke-width="1.30474" stroke-linecap="round" stroke-linejoin="round"/>
<path d="M13.3125 17.1563C13.3125 18.1757 13.7175 19.1533 14.4383 19.8742C15.1592 20.595 16.1368 21 17.1563 21C18.1757 21 19.1533 20.595 19.8742 19.8742C20.595 19.1533 21 18.1757 21 17.1563C21 16.1368 20.595 15.1592 19.8742 14.4383C19.1533 13.7175 18.1757 13.3125 17.1563 13.3125C16.1368 13.3125 15.1592 13.7175 14.4383 14.4383C13.7175 15.1592 13.3125 16.1368 13.3125 17.1563V17.1563Z" stroke="#DFDFDF" stroke-width="1.30474" stroke-linecap="round" stroke-linejoin="round"/>
<path d="M17.1562 6.90625V8.1875" stroke="#DFDFDF" stroke-width="1.30474" stroke-linecap="round" stroke-linejoin="round"/>
<path d="M17.1562 26.125V27.4063" stroke="#DFDFDF" stroke-width="1.30474" stroke-linecap="round" stroke-linejoin="round"/>
<path d="M25.785 22.6877L24.707 21.9958" stroke="#DFDFDF" stroke-width="1.30474" stroke-linecap="round" stroke-linejoin="round"/>
<path d="M9.6053 12.3165L8.52734 11.6246" stroke="#DFDFDF" stroke-width="1.30474" stroke-linecap="round" stroke-linejoin="round"/>
<path d="M8.52734 22.6877L9.6053 21.9958" stroke="#DFDFDF" stroke-width="1.30474" stroke-linecap="round" stroke-linejoin="round"/>
<path d="M24.707 12.3165L25.785 11.6246" stroke="#DFDFDF" stroke-width="1.30474" stroke-linecap="round" stroke-linejoin="round"/>
</svg>
