<svg width="30" height="30" viewBox="0 0 30 30" fill="none" xmlns="http://www.w3.org/2000/svg">
<path d="M15.904 1.55472L20.0676 9.80436L28.0812 10.5983C28.272 10.6142 28.4543 10.6844 28.6064 10.8006C28.7585 10.9168 28.8741 11.0742 28.9396 11.2541C29.0051 11.434 29.0176 11.6289 28.9758 11.8158C28.9339 12.0026 28.8394 12.1735 28.7034 12.3082L22.1084 18.8455L24.5535 27.7286C24.6035 27.917 24.5981 28.1158 24.5378 28.3012C24.4775 28.4866 24.3649 28.6506 24.2136 28.7735C24.0623 28.8965 23.8787 28.973 23.6849 28.9941C23.4912 29.0151 23.2954 28.9797 23.1213 28.8922L14.9969 24.8688L6.88371 28.8872C6.70956 28.9748 6.51382 29.0102 6.32004 28.9891C6.12625 28.9681 5.94267 28.8915 5.79137 28.7686C5.64007 28.6457 5.5275 28.4816 5.4672 28.2963C5.4069 28.1109 5.40144 27.912 5.45146 27.7236L7.89662 18.8405L1.29657 12.3033C1.1606 12.1685 1.0661 11.9976 1.02424 11.8108C0.982382 11.624 0.994927 11.4291 1.06039 11.2491C1.12585 11.0692 1.24149 10.9119 1.39361 10.7956C1.54574 10.6794 1.72797 10.6092 1.91875 10.5934L9.93238 9.79938L14.0898 1.55472C14.1753 1.38771 14.3052 1.24755 14.4653 1.14967C14.6253 1.05179 14.8093 1 14.9969 1C15.1845 1 15.3685 1.05179 15.5285 1.14967C15.6886 1.24755 15.8185 1.38771 15.904 1.55472V1.55472Z" stroke="white" stroke-width="1.4" stroke-linecap="round" stroke-linejoin="round"/>
</svg>
