<svg width="106" height="58" viewBox="0 0 106 58" fill="none" xmlns="http://www.w3.org/2000/svg">
<path d="M5.4695 33.2494C5.08706 33.3259 4.62814 33.02 4.62814 32.6375C4.62814 32.561 4.62814 32.4845 4.62814 32.4081V14.6629H1.33917C0.956729 14.7394 0.497803 14.4335 0.497803 14.051C0.497803 13.9745 0.497803 13.898 0.497803 13.8216V12.7507C0.497803 12.5213 0.57429 12.2918 0.727266 12.0623C0.956729 11.9094 1.18619 11.7564 1.49214 11.7564L4.62814 11.3739V7.77903C4.62814 2.9603 6.92277 0.512695 11.5885 0.512695C12.7358 0.512695 13.8831 0.665671 15.0305 0.971621C15.2599 1.04811 15.5659 1.20108 15.7189 1.35406C15.8718 1.66001 15.9483 1.96596 15.9483 2.27191V3.41923C15.9483 3.95464 15.7189 4.26059 15.2599 4.26059C14.8775 4.26059 14.495 4.1841 14.1126 4.10762C13.5772 4.03113 13.0418 3.95464 12.5064 3.95464C11.512 3.87815 10.5177 4.10762 9.67632 4.71952C9.06442 5.40791 8.75847 6.32576 8.91145 7.24361V11.221H14.801C15.1834 11.1445 15.6424 11.4504 15.6424 11.8329C15.6424 11.9094 15.6424 11.9858 15.6424 12.0623V13.7451C15.7189 14.1275 15.4129 14.5864 15.0305 14.5864C14.954 14.5864 14.8775 14.5864 14.801 14.5864H8.91145V32.4081C8.98794 32.7905 8.68198 33.2494 8.22306 33.2494C8.14657 33.2494 8.07008 33.2494 7.9936 33.2494H5.4695V33.2494Z" fill="#808080"/>
<path d="M21.5319 7.32C20.767 7.39648 20.0787 7.09053 19.5432 6.63161C19.0843 6.09619 18.7784 5.4078 18.8549 4.71941C18.7784 4.03103 19.0843 3.34264 19.5432 2.80722C20.0787 2.27181 20.767 2.04235 21.5319 2.11883C22.2203 2.04235 22.9852 2.27181 23.4441 2.80722C23.9795 3.34264 24.209 4.03103 24.209 4.71941C24.209 5.4078 23.9795 6.09619 23.4441 6.63161C22.9852 7.09053 22.2203 7.39648 21.5319 7.32ZM20.2316 33.2493C19.8492 33.3258 19.3903 33.0199 19.3903 32.6374C19.3903 32.5609 19.3903 32.4844 19.3903 32.408V12.1387C19.3138 11.7563 19.6197 11.2974 20.0022 11.2209C20.0787 11.2209 20.1551 11.2209 20.2316 11.2209H22.8322C23.2147 11.1444 23.6736 11.4503 23.6736 11.8328C23.6736 11.9093 23.6736 11.9857 23.6736 12.0622V32.408C23.7501 32.7904 23.4441 33.2493 22.9852 33.2493C22.9087 33.2493 22.8322 33.2493 22.7557 33.2493H20.2316V33.2493Z" fill="#808080"/>
<path d="M30.1751 33.2498C29.7926 33.3263 29.3337 33.0203 29.3337 32.6379C29.3337 32.5614 29.3337 32.4849 29.3337 32.4084V12.1392C29.2572 11.7567 29.5632 11.2978 29.9456 11.2213C30.0221 11.2213 30.0986 11.2213 30.1751 11.2213H32.0873C32.3167 11.2213 32.5462 11.2978 32.7756 11.3743C32.9286 11.5273 33.0816 11.7567 33.0816 12.0627L33.3875 14.5103C34.0759 13.7454 34.7643 13.1335 35.6057 12.5216C36.2941 12.0627 36.9825 11.6803 37.7473 11.4508C38.5122 11.2213 39.2771 11.0684 40.1185 11.0684C40.5009 11.0684 40.8069 11.0684 41.1893 11.1448C41.6482 11.1448 41.9542 11.4508 41.9542 11.9097V14.2808C42.0307 14.6633 41.7247 14.9692 41.3423 15.0457C41.2658 15.0457 41.2658 15.0457 41.1893 15.0457C40.9598 15.0457 40.6539 15.0457 40.4244 15.0457C40.1949 15.0457 39.889 14.9692 39.6595 14.9692C37.5179 14.8927 35.3762 15.6576 33.6935 17.0344V32.3319C33.77 32.7144 33.464 33.1733 33.0051 33.1733C32.9286 33.1733 32.8521 33.1733 32.7756 33.1733H30.1751V33.2498Z" fill="#808080"/>
<path d="M53.5038 33.9381C49.9089 33.9381 47.2318 32.9438 45.3961 30.9551C43.5604 28.9664 42.6426 26.0599 42.6426 22.2355C42.6426 18.5641 43.5604 15.7341 45.3961 13.6689C47.2318 11.6037 49.7559 10.6094 53.0449 10.6094C55.7985 10.6094 57.9401 11.3743 59.3934 12.904C60.8466 14.4338 61.6115 16.6519 61.6115 19.4819C61.6115 20.3998 61.535 21.3941 61.3821 22.312C61.3821 22.5415 61.2291 22.8474 61.0761 23.0004C60.9231 23.1534 60.6937 23.1534 60.4642 23.1534H46.8494C46.9259 25.6774 47.5378 27.5132 48.6851 28.6605C49.8324 29.8078 51.7446 30.4962 54.1157 30.4962C54.9571 30.4962 55.7985 30.4197 56.6398 30.3432C57.7107 30.1902 58.705 29.8843 59.6993 29.5783L60.2347 29.4253C60.3877 29.4253 60.4642 29.3489 60.6172 29.3489C60.9996 29.3489 61.1526 29.5783 61.1526 30.1137V31.3375C61.1526 31.6435 61.0761 31.873 60.9996 32.1024C60.7702 32.3319 60.5407 32.4849 60.2347 32.6378C59.2404 33.0203 58.1696 33.3262 57.0988 33.5557C55.9514 33.7851 54.7276 33.9381 53.5038 33.9381ZM57.7107 20.3233C57.7107 19.9409 57.7871 19.5584 57.7871 19.176C57.8636 17.7227 57.4812 16.2695 56.5633 15.1986C55.569 14.2808 54.2687 13.7454 52.9684 13.8219C51.3622 13.7454 49.8324 14.3573 48.6851 15.4281C47.6908 16.4989 47.0789 18.1052 46.9259 20.2468H57.7107V20.3233Z" fill="#808080"/>
<path d="M77.8268 33.5547C73.6965 33.5547 71.6313 31.4895 71.6313 27.3592V14.6622H68.4953C68.1129 14.7387 67.6539 14.4327 67.6539 14.0503C67.6539 13.9738 67.6539 13.8973 67.6539 13.8208V12.75C67.6539 12.5205 67.7304 12.2911 67.8834 12.0616C68.1129 11.9086 68.3423 11.7557 68.6483 11.7557L71.8608 11.3732L72.3962 6.01909C72.3962 5.56017 72.7021 5.17773 73.161 5.17773H73.2375H75.0732C75.4557 5.10124 75.9146 5.40719 75.9146 5.86612C75.9146 5.94261 75.9146 6.01909 75.9146 6.01909V11.2203H81.5747C81.9571 11.1438 82.416 11.4497 82.416 11.8322C82.416 11.9086 82.416 11.9851 82.416 12.0616V13.7443C82.4925 14.1268 82.1866 14.5857 81.8042 14.6622C81.7277 14.6622 81.6512 14.6622 81.5747 14.6622H75.9146V27.2062C75.8381 28.0475 76.0676 28.8124 76.603 29.5008C77.2914 30.0362 78.2092 30.2657 79.0506 30.1127C79.739 30.1127 80.4274 30.0362 81.1158 29.8832C81.4217 29.8068 81.7277 29.8068 81.9571 29.7303C82.1101 29.7303 82.3396 29.8068 82.416 29.9597C82.4925 30.1892 82.569 30.3422 82.569 30.5716V31.719C82.569 32.0249 82.569 32.3309 82.416 32.5603C82.2631 32.7898 82.0336 32.9428 81.7277 33.0192C80.5039 33.4017 79.1271 33.6311 77.8268 33.5547Z" fill="#808080"/>
<path d="M94.3482 33.2495C94.0422 33.2495 93.7363 33.2495 93.4303 33.0966C93.1244 32.7906 92.9714 32.4847 92.8184 32.1022L85.0932 12.8273C85.0167 12.6744 84.9402 12.4449 84.8637 12.2919C84.7872 12.1389 84.7872 11.986 84.7872 11.833C84.7872 11.4506 85.0167 11.2976 85.3991 11.2976H87.9997C88.3057 11.2976 88.6116 11.2976 88.9176 11.4506C89.2235 11.7565 89.3765 12.0625 89.453 12.4449L95.419 29.4252L101.385 12.4449C101.462 12.0625 101.691 11.7565 101.92 11.4506C102.226 11.2976 102.532 11.2211 102.838 11.2976H105.209C105.668 11.2976 105.898 11.527 105.898 11.833C105.898 11.986 105.821 12.1389 105.821 12.2919C105.745 12.4449 105.668 12.6744 105.592 12.8273L97.9431 32.1022C97.8666 32.4847 97.6372 32.7906 97.3312 33.0966C97.0253 33.2495 96.7193 33.326 96.4134 33.2495H94.3482Z" fill="#808080"/>
<path d="M85.9346 47.0171C76.909 53.6715 63.7531 57.2664 52.5095 57.2664C37.4414 57.3429 22.8322 51.7593 11.665 41.6629C10.8237 40.8981 11.5886 39.8272 12.5829 40.4391C25.0504 47.5525 39.1241 51.3004 53.4273 51.3004C64.1356 51.2239 74.7674 49.0822 84.6343 44.9519C86.164 44.2635 87.4643 45.9462 85.9346 47.0171Z" fill="#808080"/>
<path d="M89.7589 42.7337C88.6116 41.2804 82.1101 42.0453 79.2036 42.3513C78.2858 42.4278 78.2093 41.6629 78.9741 41.1275C84.1753 37.4561 92.6654 38.5269 93.6598 39.7507C94.6541 40.9745 93.4303 49.4646 88.5351 53.5185C87.7702 54.1304 87.0818 53.8244 87.3878 52.9831C88.4586 50.306 90.9062 44.187 89.7589 42.7337Z" fill="#808080"/>
</svg>
