<svg width="201" height="43" viewBox="0 0 201 43" fill="none" xmlns="http://www.w3.org/2000/svg">
<path fill-rule="evenodd" clip-rule="evenodd" d="M1.94659 42.1995L20.2787 23.9199L26.7427 30.3629L4.94773 42.4409C4.11874 42.9026 3.10087 42.8921 2.28238 42.4199C2.28238 42.4304 1.94659 42.1995 1.94659 42.1995ZM18.4319 22.073L0.949707 39.5027V4.64332L18.4319 22.073ZM29.3556 14.8745L37.8973 19.607C38.7368 20.0688 39.2615 20.9502 39.2615 21.8946C39.2615 22.839 38.7368 23.7205 37.8973 24.1822L29.1247 29.0407L22.1361 22.073C22.1256 22.073 29.3556 14.8745 29.3556 14.8745ZM1.74721 1.75761C1.90462 1.6107 2.083 1.47429 2.27189 1.35886C3.09038 0.886653 4.10825 0.876159 4.93724 1.33787L26.9736 13.5523L20.2787 20.2262L1.74721 1.75761Z" fill="#808080"/>
<path d="M100.26 15.8365C96.1626 15.8365 92.8316 18.9483 92.8316 23.2434C92.8316 27.5167 96.1626 30.6504 100.26 30.6504C104.358 30.6504 107.689 27.5167 107.689 23.2434C107.689 18.9702 104.358 15.8365 100.26 15.8365ZM100.26 27.7358C98.0252 27.7358 96.0749 25.8731 96.0749 23.2434C96.0749 20.5699 98.0033 18.7511 100.26 18.7511C102.518 18.7511 104.446 20.5699 104.446 23.2434C104.424 25.8731 102.496 27.7358 100.26 27.7358ZM120.158 17.5019H120.049C119.326 16.6254 117.923 15.8365 116.148 15.8365C112.445 15.8365 109.048 19.1017 109.048 23.2653C109.048 27.4071 112.445 30.6504 116.148 30.6504C117.923 30.6504 119.326 29.8615 120.049 28.963H120.158V30.0368C120.158 32.8637 118.646 34.3758 116.214 34.3758C114.22 34.3758 112.993 32.9514 112.489 31.7461L109.662 32.9294C110.472 34.9017 112.642 37.3123 116.236 37.3123C120.049 37.3123 123.27 35.077 123.27 29.5985V16.2967H120.18L120.158 17.5019ZM116.433 27.7358C114.198 27.7358 112.313 25.8512 112.313 23.2653C112.313 20.6576 114.198 18.7511 116.433 18.7511C118.646 18.7511 120.378 20.6576 120.378 23.2653C120.378 25.8731 118.646 27.7358 116.433 27.7358ZM84.0441 15.8365C79.9462 15.8365 76.6152 18.9483 76.6152 23.2434C76.6152 27.5167 79.9462 30.6504 84.0441 30.6504C88.142 30.6504 91.4729 27.5167 91.4729 23.2434C91.4729 18.9702 88.142 15.8365 84.0441 15.8365V15.8365ZM84.0441 27.7358C81.8089 27.7358 79.8585 25.8731 79.8585 23.2434C79.8585 20.5699 81.7869 18.7511 84.0441 18.7511C86.2793 18.7511 88.2297 20.5699 88.2297 23.2434C88.2078 25.8731 86.2793 27.7358 84.0441 27.7358ZM64.7378 18.0936V21.2273H72.2543C72.0352 23.0024 71.4435 24.2953 70.545 25.1938C69.4493 26.2895 67.74 27.4948 64.7378 27.4948C60.1139 27.4948 56.4981 23.7694 56.4981 19.1455C56.4981 14.5216 60.1139 10.7963 64.7378 10.7963C67.236 10.7963 69.0549 11.7824 70.4135 13.0315L72.6269 10.8182C70.7423 9.02121 68.2441 7.64062 64.7378 7.64062C58.4046 7.64062 53.0576 12.8123 53.0576 19.1455C53.0576 25.4787 58.3827 30.6504 64.7378 30.6504C68.1564 30.6504 70.7423 29.5328 72.7583 27.429C74.8402 25.3472 75.4757 22.4326 75.4757 20.0878C75.4757 19.3646 75.41 18.6853 75.3004 18.1155L64.7378 18.0936ZM143.628 20.5699C143.015 18.9044 141.13 15.8584 137.295 15.8584C133.482 15.8584 130.305 18.8606 130.305 23.2653C130.305 27.4071 133.438 30.6723 137.646 30.6723C141.043 30.6723 143.015 28.5905 143.826 27.3852L141.306 25.6978C140.473 26.925 139.311 27.7358 137.668 27.7358C136.024 27.7358 134.841 26.9688 134.074 25.5006L143.979 21.4027L143.628 20.5699ZM133.548 23.0243C133.46 20.1535 135.761 18.7072 137.427 18.7072C138.72 18.7072 139.815 19.3427 140.166 20.285L133.548 23.0243ZM125.484 30.2121H128.727V8.45145H125.484V30.2121ZM158.881 8.45145H151.101V30.2121H154.344V21.9724H158.881C162.474 21.9724 166.025 19.3646 166.025 15.201C166.025 11.0592 162.474 8.45145 158.881 8.45145ZM158.968 18.9045H154.344V11.4537H158.968C161.401 11.4537 162.781 13.4698 162.781 15.1791C162.781 16.8884 161.401 18.9045 158.968 18.9045ZM167.822 30.2121H171.065V8.45145H167.822V30.2121ZM179.041 15.7927C176.697 15.7927 174.242 16.8226 173.234 19.1236L176.127 20.3289C176.741 19.1236 177.88 18.7291 179.085 18.7291C180.773 18.7291 182.482 19.7372 182.504 21.5341V21.7533C181.912 21.4246 180.663 20.9205 179.107 20.9205C175.995 20.9205 172.84 22.6298 172.84 25.8293C172.84 28.7439 175.382 30.6066 178.253 30.6066C180.444 30.6066 181.649 29.6204 182.394 28.4809H182.504V30.1683H185.638V21.819C185.66 17.9621 182.767 15.7927 179.041 15.7927V15.7927ZM178.647 27.7358C177.573 27.7358 176.105 27.2099 176.105 25.895C176.105 24.2076 177.946 23.5721 179.546 23.5721C180.97 23.5721 181.649 23.8789 182.504 24.2953C182.263 26.3114 180.532 27.7358 178.647 27.7358ZM197.077 16.2748L193.351 25.7197H193.242L189.385 16.2748H185.879L191.664 29.467L188.355 36.8301H191.752L200.693 16.2967H197.077V16.2748Z" fill="#808080"/>
</svg>
