<svg width="218" height="219" viewBox="0 0 218 219" fill="none" xmlns="http://www.w3.org/2000/svg">
<g clip-path="url(#clip0_2057_32278)">
<circle cx="109" cy="109.115" r="109" fill="#2F2F2F"/>
<g filter="url(#filter0_d_2057_32278)">
<rect x="43" y="67.1147" width="128" height="81" rx="5" fill="#040404"/>
</g>
<path d="M39.9255 67.8845C39.9255 66.7016 40.8845 65.7427 42.0674 65.7427H174.862C176.045 65.7427 177.004 66.7016 177.004 67.8845V148.204H39.9255V67.8845Z" fill="#040404"/>
<path d="M43.5 70.7566C43.5 69.5737 44.4589 68.6147 45.6418 68.6147H171.358C172.541 68.6147 173.5 69.5737 173.5 70.7566V145.615H43.5V70.7566Z" fill="#555556"/>
<g filter="url(#filter1_d_2057_32278)">
<circle cx="107.983" cy="108.04" r="15.6988" fill="#21A2FF"/>
</g>
<circle cx="108.49" cy="107.534" r="18.2308" fill="#21A2FF"/>
<path d="M106.513 101.331C105.163 100.501 103.426 101.472 103.426 103.056V112.012C103.426 113.596 105.163 114.567 106.513 113.737L113.789 109.26C115.074 108.469 115.074 106.6 113.789 105.809L106.513 101.331Z" fill="white"/>
<path d="M98.5 68.6147H117.5V69.5438C117.5 70.1353 117.021 70.6147 116.429 70.6147H99.5709C98.9795 70.6147 98.5 70.1353 98.5 69.5438V68.6147Z" fill="#040404"/>
<path d="M33.5 147.133H184.5V150.346C184.5 151.528 183.541 152.487 182.358 152.487H35.6418C34.4589 152.487 33.5 151.528 33.5 150.346V147.133Z" fill="#040404"/>
</g>
<defs>
<filter id="filter0_d_2057_32278" x="19" y="51.1147" width="176" height="129" filterUnits="userSpaceOnUse" color-interpolation-filters="sRGB">
<feFlood flood-opacity="0" result="BackgroundImageFix"/>
<feColorMatrix in="SourceAlpha" type="matrix" values="0 0 0 0 0 0 0 0 0 0 0 0 0 0 0 0 0 0 127 0" result="hardAlpha"/>
<feOffset dy="8"/>
<feGaussianBlur stdDeviation="12"/>
<feComposite in2="hardAlpha" operator="out"/>
<feColorMatrix type="matrix" values="0 0 0 0 0 0 0 0 0 0 0 0 0 0 0 0 0 0 0.45 0"/>
<feBlend mode="normal" in2="BackgroundImageFix" result="effect1_dropShadow_2057_32278"/>
<feBlend mode="normal" in="SourceGraphic" in2="effect1_dropShadow_2057_32278" result="shape"/>
</filter>
<filter id="filter1_d_2057_32278" x="67.9766" y="74.1105" width="80.0131" height="80.0131" filterUnits="userSpaceOnUse" color-interpolation-filters="sRGB">
<feFlood flood-opacity="0" result="BackgroundImageFix"/>
<feColorMatrix in="SourceAlpha" type="matrix" values="0 0 0 0 0 0 0 0 0 0 0 0 0 0 0 0 0 0 127 0" result="hardAlpha"/>
<feOffset dy="6.07695"/>
<feGaussianBlur stdDeviation="12.1539"/>
<feComposite in2="hardAlpha" operator="out"/>
<feColorMatrix type="matrix" values="0 0 0 0 0 0 0 0 0 0 0 0 0 0 0 0 0 0 0.45 0"/>
<feBlend mode="normal" in2="BackgroundImageFix" result="effect1_dropShadow_2057_32278"/>
<feBlend mode="normal" in="SourceGraphic" in2="effect1_dropShadow_2057_32278" result="shape"/>
</filter>
<clipPath id="clip0_2057_32278">
<rect width="218" height="218" fill="white" transform="translate(0 0.115234)"/>
</clipPath>
</defs>
</svg>
