<svg width="70" height="70" viewBox="0 0 70 70" fill="none" xmlns="http://www.w3.org/2000/svg">
<path d="M48.9541 26.3193H20.1572C16.1812 26.3193 12.958 29.5425 12.958 33.5186V55.1162C12.958 59.0922 16.1812 62.3154 20.1572 62.3154H48.9541C52.9301 62.3154 56.1533 59.0922 56.1533 55.1162V33.5186C56.1533 29.5425 52.9301 26.3193 48.9541 26.3193Z" stroke="#DFDFDF" stroke-width="3" stroke-linecap="round" stroke-linejoin="round"/>
<path d="M34.5557 4.72168C30.737 4.72168 27.0747 6.23865 24.3744 8.93888C21.6742 11.6391 20.1572 15.3014 20.1572 19.1201V26.3193H48.9541V19.1201C48.9541 15.3014 47.4371 11.6391 44.7369 8.93888C42.0367 6.23865 38.3744 4.72168 34.5557 4.72168V4.72168Z" stroke="#DFDFDF" stroke-width="3" stroke-linecap="round" stroke-linejoin="round"/>
</svg>
