<svg width="64" height="74" viewBox="0 0 64 74" fill="none" xmlns="http://www.w3.org/2000/svg">
<path d="M2.0001 11.8741V35.5611C2.00017 43.0481 4.24415 50.3594 8.43626 56.5311C12.6284 62.7029 18.5718 67.4454 25.4831 70.1335L28.6862 71.3779C30.8192 72.2074 33.1808 72.2074 35.3138 71.3779L38.5169 70.1335C45.4282 67.4454 51.3716 62.7029 55.5637 56.5311C59.7558 50.3594 61.9998 43.0481 61.9999 35.5611V11.8741C62.0058 10.9827 61.7569 10.1086 61.2831 9.35692C60.8092 8.60522 60.1307 8.00793 59.3291 7.6369C50.7133 3.83462 41.4004 1.91474 32 2.0029C22.5996 1.91474 13.2867 3.83462 4.67086 7.6369C3.86926 8.00793 3.19075 8.60522 2.71694 9.35692C2.24313 10.1086 1.99421 10.9827 2.0001 11.8741V11.8741Z" stroke="#DFDFDF" stroke-width="3" stroke-linecap="round" stroke-linejoin="round"/>
<path d="M44 26L27.4242 43.3048C27.2134 43.5252 26.9631 43.7 26.6875 43.8193C26.4119 43.9386 26.1165 44 25.8182 44C25.5198 44 25.2244 43.9386 24.9489 43.8193C24.6733 43.7 24.4229 43.5252 24.2121 43.3048L19 37.8666" stroke="#DFDFDF" stroke-width="3" stroke-linecap="round" stroke-linejoin="round"/>
</svg>
