<svg width="40" height="40" viewBox="0 0 40 40" fill="none" xmlns="http://www.w3.org/2000/svg">
<path d="M2.21156 14.3984L4.37287 16.5597C4.92925 17.1162 5.58981 17.5577 6.31681 17.8588C7.04381 18.16 7.82302 18.315 8.60993 18.315C9.39684 18.315 10.1761 18.16 10.9031 17.8588C11.6301 17.5577 12.2906 17.1162 12.847 16.5597L16.0252 13.3832C16.3034 13.105 16.5242 12.7747 16.6747 12.4112C16.8253 12.0477 16.9028 11.6581 16.9028 11.2646C16.9028 10.8712 16.8253 10.4816 16.6747 10.1181C16.5242 9.75456 16.3034 9.42429 16.0252 9.14609L9.84473 2.96563C9.54264 2.66059 9.17861 2.42392 8.77722 2.27161C8.37584 2.1193 7.94644 2.05489 7.51803 2.08274C7.08962 2.11058 6.67217 2.23003 6.29388 2.43302C5.91559 2.63601 5.58526 2.91782 5.3252 3.2594C-1.14581 12.0531 2.77166 21.3149 10.7293 29.2709C18.6869 37.2269 27.9471 41.146 36.7408 34.675C37.0824 34.4149 37.3642 34.0846 37.5672 33.7063C37.7702 33.328 37.8896 32.9106 37.9175 32.4822C37.9453 32.0538 37.8809 31.6244 37.7286 31.223C37.5763 30.8216 37.3396 30.4576 37.0346 30.1555L30.8557 23.975C30.5775 23.6968 30.2473 23.4761 29.8838 23.3255C29.5203 23.1749 29.1307 23.0974 28.7372 23.0974C28.3437 23.0974 27.9541 23.1749 27.5906 23.3255C27.2271 23.4761 26.8969 23.6968 26.6187 23.975L23.4405 27.1532C22.884 27.7096 22.4426 28.3702 22.1414 29.0972C21.8402 29.8242 21.6852 30.6034 21.6852 31.3903C21.6852 32.1772 21.8402 32.9564 22.1414 33.6834C22.4426 34.4104 22.884 35.071 23.4405 35.6273L25.626 37.8129" stroke="white" stroke-width="1.5" stroke-linecap="round" stroke-linejoin="round"/>
</svg>
