<svg width="218" height="219" viewBox="0 0 218 219" fill="none" xmlns="http://www.w3.org/2000/svg">
<g clip-path="url(#clip0_2057_32304)">
<circle cx="109" cy="109.115" r="109" fill="#2F2F2F"/>
<g filter="url(#filter0_d_2057_32304)">
<rect x="81" y="41.1152" width="55" height="132" rx="7.11304" fill="black"/>
</g>
<path fill-rule="evenodd" clip-rule="evenodd" d="M74.2689 62.1857C74.2636 60.8545 74.2671 59.5233 74.2664 58.1922C74.2663 57.9041 74.2957 57.6106 74.707 57.5628C74.7731 57.59 74.759 57.4089 74.7588 57.3042C74.7672 57.0251 74.7746 56.8156 74.7747 56.5852C74.7759 53.9487 74.7693 51.3122 74.7803 48.6757C74.7843 47.7289 74.8152 46.7815 74.8609 45.8357C74.9129 44.7591 75.075 43.6948 75.3922 42.6636C76.5896 38.7712 79.2156 36.4098 83.1545 35.4769C84.6091 35.1325 86.0966 35.1061 87.5803 35.0634C88.1943 35.0457 88.809 35.0554 89.4234 35.0554C102.684 35.0546 115.945 35.0515 129.205 35.058C130.459 35.0586 131.713 35.1041 132.966 35.1577C134.017 35.2027 135.055 35.3758 136.06 35.6883C139.917 36.8869 142.269 39.491 143.206 43.3979C143.524 44.7251 143.587 46.0822 143.621 47.4383C143.65 48.6153 143.643 49.7933 143.644 50.9709C143.646 57.4219 143.645 63.873 143.645 70.3241C143.645 70.5289 143.641 70.7339 143.649 70.9384C143.654 71.0389 143.646 71.2724 143.706 71.3182C144.095 71.3951 143.986 71.9196 143.986 72.2904C143.991 77.2055 143.991 82.1206 143.986 87.0357C143.985 87.4301 144.085 88.0068 143.701 88.0786C143.642 88.1259 143.652 88.3652 143.649 88.4661C143.641 88.6962 143.645 88.9268 143.645 89.1571C143.645 113.144 143.648 137.131 143.641 161.117C143.641 162.678 143.586 164.239 143.513 165.798C143.459 166.953 143.23 168.085 142.838 169.174C141.608 172.585 139.209 174.732 135.731 175.691C134.716 175.97 133.675 176.113 132.624 176.155C131.704 176.191 130.782 176.205 129.861 176.205C116.242 176.209 102.623 176.21 89.0037 176.208C87.9799 176.207 86.9556 176.196 85.9324 176.162C84.7523 176.123 83.5838 175.967 82.4514 175.626C78.4898 174.435 76.0966 171.777 75.1749 167.769C74.9275 166.693 74.8325 165.596 74.8183 164.493C74.8005 163.111 74.7765 161.729 74.7764 160.347C74.774 137.768 74.775 115.189 74.7751 92.6103C74.7751 92.4311 74.779 92.2516 74.7689 92.0729C74.7652 92.008 74.7666 91.8261 74.7597 91.7005C74.7477 91.654 74.6981 91.6677 74.6887 91.6621C74.3148 91.6535 74.4131 90.9917 74.412 90.5714C74.4049 87.7811 74.4057 84.9908 74.4113 82.2004C74.412 81.804 74.3431 81.1139 74.6838 81.069C74.7844 81.0938 74.7684 80.8236 74.7696 80.6986C74.7759 80.0331 74.7725 79.1444 74.7607 78.479C74.7581 78.3344 74.7035 78.3574 74.6395 78.3449C74.4446 78.3039 74.4133 77.7838 74.4119 77.5047C74.4081 76.7111 74.4077 75.9175 74.4076 75.1239C74.4074 72.9992 74.4051 70.8744 74.4112 68.7497C74.4124 68.3528 74.302 67.5724 74.6922 67.5266C74.7601 67.5266 74.761 67.4988 74.7613 67.4C74.7651 65.9424 74.7607 64.2296 74.7607 62.8035C74.313 62.882 74.2706 62.6349 74.2689 62.1857Z" fill="#040404"/>
<mask id="mask0_2057_32304" style="mask-type:alpha" maskUnits="userSpaceOnUse" x="74" y="35" width="70" height="142">
<path fill-rule="evenodd" clip-rule="evenodd" d="M74.2689 62.1857C74.2636 60.8545 74.2671 59.5233 74.2664 58.1922C74.2663 57.9041 74.2957 57.6106 74.707 57.5628C74.7731 57.59 74.759 57.4089 74.7588 57.3042C74.7672 57.0251 74.7746 56.8156 74.7747 56.5852C74.7759 53.9487 74.7693 51.3122 74.7803 48.6757C74.7843 47.7289 74.8152 46.7815 74.8609 45.8357C74.9129 44.7591 75.075 43.6948 75.3922 42.6636C76.5896 38.7712 79.2156 36.4098 83.1545 35.4769C84.6091 35.1325 86.0966 35.1061 87.5803 35.0634C88.1943 35.0457 88.809 35.0554 89.4234 35.0554C102.684 35.0546 115.945 35.0515 129.205 35.058C130.459 35.0586 131.713 35.1041 132.966 35.1577C134.017 35.2027 135.055 35.3758 136.06 35.6883C139.917 36.8869 142.269 39.491 143.206 43.3979C143.524 44.7251 143.587 46.0822 143.621 47.4383C143.65 48.6153 143.643 49.7933 143.644 50.9709C143.646 57.4219 143.645 63.873 143.645 70.3241C143.645 70.5289 143.641 70.7339 143.649 70.9384C143.654 71.0389 143.646 71.2724 143.706 71.3182C144.095 71.3951 143.986 71.9196 143.986 72.2904C143.991 77.2055 143.991 82.1206 143.986 87.0357C143.985 87.4301 144.085 88.0068 143.701 88.0786C143.642 88.1259 143.652 88.3652 143.649 88.4661C143.641 88.6962 143.645 88.9268 143.645 89.1571C143.645 113.144 143.648 137.131 143.641 161.117C143.641 162.678 143.586 164.239 143.513 165.798C143.459 166.953 143.23 168.085 142.838 169.174C141.608 172.585 139.209 174.732 135.731 175.691C134.716 175.97 133.675 176.113 132.624 176.155C131.704 176.191 130.782 176.205 129.861 176.205C116.242 176.209 102.623 176.21 89.0037 176.208C87.9799 176.207 86.9556 176.196 85.9324 176.162C84.7523 176.123 83.5838 175.967 82.4514 175.626C78.4898 174.435 76.0966 171.777 75.1749 167.769C74.9275 166.693 74.8325 165.596 74.8183 164.493C74.8005 163.111 74.7765 161.729 74.7764 160.347C74.774 137.768 74.775 115.189 74.7751 92.6103C74.7751 92.4311 74.779 92.2516 74.7689 92.0729C74.7652 92.008 74.7666 91.8261 74.7597 91.7005C74.7477 91.654 74.6981 91.6677 74.6887 91.6621C74.3148 91.6535 74.4131 90.9917 74.412 90.5714C74.4049 87.7811 74.4057 84.9908 74.4113 82.2004C74.412 81.804 74.3431 81.1139 74.6838 81.069C74.7844 81.0938 74.7684 80.8236 74.7696 80.6986C74.7759 80.0331 74.7725 79.1444 74.7607 78.479C74.7581 78.3344 74.7035 78.3574 74.6395 78.3449C74.4446 78.3039 74.4133 77.7838 74.4119 77.5047C74.4081 76.7111 74.4077 75.9175 74.4076 75.1239C74.4074 72.9992 74.4051 70.8744 74.4112 68.7497C74.4124 68.3528 74.302 67.5724 74.6922 67.5266C74.7601 67.5266 74.761 67.4988 74.7613 67.4C74.7651 65.9424 74.7607 64.2296 74.7607 62.8035C74.313 62.882 74.2706 62.6349 74.2689 62.1857Z" fill="white"/>
<path fill-rule="evenodd" clip-rule="evenodd" d="M74.2689 62.1857C74.2636 60.8545 74.2671 59.5233 74.2664 58.1922C74.2663 57.9041 74.2957 57.6106 74.707 57.5628C74.7731 57.59 74.759 57.4089 74.7588 57.3042C74.7672 57.0251 74.7746 56.8156 74.7747 56.5852C74.7759 53.9487 74.7693 51.3122 74.7803 48.6757C74.7843 47.7289 74.8152 46.7815 74.8609 45.8357C74.9129 44.7591 75.075 43.6948 75.3922 42.6636C76.5896 38.7712 79.2156 36.4098 83.1545 35.4769C84.6091 35.1325 86.0966 35.1061 87.5803 35.0634C88.1943 35.0457 88.809 35.0554 89.4234 35.0554C102.684 35.0546 115.945 35.0515 129.205 35.058C130.459 35.0586 131.713 35.1041 132.966 35.1577C134.017 35.2027 135.055 35.3758 136.06 35.6883C139.917 36.8869 142.269 39.491 143.206 43.3979C143.524 44.7251 143.587 46.0822 143.621 47.4383C143.65 48.6153 143.643 49.7933 143.644 50.9709C143.646 57.4219 143.645 63.873 143.645 70.3241C143.645 70.5289 143.641 70.7339 143.649 70.9384C143.654 71.0389 143.646 71.2724 143.706 71.3182C144.095 71.3951 143.986 71.9196 143.986 72.2904C143.991 77.2055 143.991 82.1206 143.986 87.0357C143.985 87.4301 144.085 88.0068 143.701 88.0786C143.642 88.1259 143.652 88.3652 143.649 88.4661C143.641 88.6962 143.645 88.9268 143.645 89.1571C143.645 113.144 143.648 137.131 143.641 161.117C143.641 162.678 143.586 164.239 143.513 165.798C143.459 166.953 143.23 168.085 142.838 169.174C141.608 172.585 139.209 174.732 135.731 175.691C134.716 175.97 133.675 176.113 132.624 176.155C131.704 176.191 130.782 176.205 129.861 176.205C116.242 176.209 102.623 176.21 89.0037 176.208C87.9799 176.207 86.9556 176.196 85.9324 176.162C84.7523 176.123 83.5838 175.967 82.4514 175.626C78.4898 174.435 76.0966 171.777 75.1749 167.769C74.9275 166.693 74.8325 165.596 74.8183 164.493C74.8005 163.111 74.7765 161.729 74.7764 160.347C74.774 137.768 74.775 115.189 74.7751 92.6103C74.7751 92.4311 74.779 92.2516 74.7689 92.0729C74.7652 92.008 74.7666 91.8261 74.7597 91.7005C74.7477 91.654 74.6981 91.6677 74.6887 91.6621C74.3148 91.6535 74.4131 90.9917 74.412 90.5714C74.4049 87.7811 74.4057 84.9908 74.4113 82.2004C74.412 81.804 74.3431 81.1139 74.6838 81.069C74.7844 81.0938 74.7684 80.8236 74.7696 80.6986C74.7759 80.0331 74.7725 79.1444 74.7607 78.479C74.7581 78.3344 74.7035 78.3574 74.6395 78.3449C74.4446 78.3039 74.4133 77.7838 74.4119 77.5047C74.4081 76.7111 74.4077 75.9175 74.4076 75.1239C74.4074 72.9992 74.4051 70.8744 74.4112 68.7497C74.4124 68.3528 74.302 67.5724 74.6922 67.5266C74.7601 67.5266 74.761 67.4988 74.7613 67.4C74.7651 65.9424 74.7607 64.2296 74.7607 62.8035C74.313 62.882 74.2706 62.6349 74.2689 62.1857Z" stroke="white"/>
</mask>
<g mask="url(#mask0_2057_32304)">
<mask id="mask1_2057_32304" style="mask-type:alpha" maskUnits="userSpaceOnUse" x="78" y="38" width="63" height="136">
<path fill-rule="evenodd" clip-rule="evenodd" d="M140.401 105.656C140.401 124.353 140.402 143.049 140.398 161.746C140.398 162.923 140.389 164.103 140.322 165.278C140.28 166.015 140.185 166.762 140.004 167.477C139.307 170.234 137.55 171.969 134.793 172.648C134.052 172.831 133.279 172.915 132.516 172.966C131.597 173.028 130.673 173.02 129.751 173.021C116.126 173.024 102.501 173.024 88.8754 173.022C87.8768 173.022 86.8776 173.006 85.8797 172.971C84.9557 172.939 84.0434 172.8 83.1598 172.52C80.8143 171.776 79.2714 170.227 78.5449 167.875C78.2484 166.915 78.1153 165.924 78.091 164.923C78.0637 163.796 78.0565 162.669 78.0565 161.542C78.0545 127.812 78.0544 94.0817 78.0542 60.3514C78.0542 56.2792 78.0526 52.207 78.0574 48.1347C78.0587 47.0338 78.0627 45.9329 78.2281 44.8388C78.332 44.152 78.4819 43.4778 78.7386 42.8344C79.6068 40.6586 81.203 39.2855 83.4501 38.6871C84.138 38.5038 84.8579 38.3811 85.568 38.3522C87.3584 38.2794 89.1516 38.2745 90.9437 38.2464C91.1222 38.2436 91.3027 38.2576 91.4796 38.2829C92.0825 38.3696 92.3299 38.6268 92.3957 39.2261C92.4404 39.6332 92.4557 40.0451 92.5268 40.4474C92.7322 41.6108 93.3729 42.4664 94.4384 42.9754C94.7558 43.1271 95.1123 43.2239 95.4612 43.2764C95.9149 43.3445 96.379 43.368 96.8386 43.3683C105.086 43.3729 113.332 43.3728 121.579 43.3671C122.065 43.3667 122.554 43.3402 123.034 43.2744C124.447 43.0808 125.581 42.0187 125.881 40.6215C125.955 40.2729 125.979 39.9131 126.02 39.5578C126.041 39.3799 126.028 39.1961 126.067 39.023C126.145 38.6726 126.357 38.4176 126.714 38.3355C126.961 38.2786 127.22 38.2455 127.474 38.2488C129.291 38.2728 131.11 38.2847 132.926 38.3539C133.585 38.379 134.253 38.4976 134.893 38.6636C137.583 39.3607 139.297 41.0723 139.991 43.7608C140.176 44.4746 140.278 45.2212 140.318 45.9583C140.386 47.2102 140.394 48.4664 140.394 49.7209C140.399 68.3661 140.397 87.0113 140.397 105.656H140.401Z" fill="white"/>
</mask>
<g mask="url(#mask1_2057_32304)">
<path fill-rule="evenodd" clip-rule="evenodd" d="M77.9436 38.0576H140.641V173.217H77.9436V38.0576Z" fill="#595959"/>
</g>
<g filter="url(#filter1_d_2057_32304)">
<circle cx="108.534" cy="106.562" r="14.6591" fill="#21A2FF"/>
</g>
<circle cx="109.007" cy="106.089" r="17.0235" fill="#21A2FF"/>
<path d="M107.161 100.297C105.901 99.5216 104.278 100.428 104.278 101.908V110.27C104.278 111.75 105.901 112.657 107.161 111.881L113.955 107.7C115.156 106.962 115.156 105.217 113.955 104.479L107.161 100.297Z" fill="white"/>
</g>
</g>
<defs>
<filter id="filter0_d_2057_32304" x="36.2895" y="3.51775" width="144.421" height="221.421" filterUnits="userSpaceOnUse" color-interpolation-filters="sRGB">
<feFlood flood-opacity="0" result="BackgroundImageFix"/>
<feColorMatrix in="SourceAlpha" type="matrix" values="0 0 0 0 0 0 0 0 0 0 0 0 0 0 0 0 0 0 127 0" result="hardAlpha"/>
<feOffset dy="7.11304"/>
<feGaussianBlur stdDeviation="22.3553"/>
<feComposite in2="hardAlpha" operator="out"/>
<feColorMatrix type="matrix" values="0 0 0 0 0 0 0 0 0 0 0 0 0 0 0 0 0 0 0.65 0"/>
<feBlend mode="normal" in2="BackgroundImageFix" result="effect1_dropShadow_2057_32304"/>
<feBlend mode="normal" in="SourceGraphic" in2="effect1_dropShadow_2057_32304" result="shape"/>
</filter>
<filter id="filter1_d_2057_32304" x="71.177" y="74.8793" width="74.7144" height="74.7144" filterUnits="userSpaceOnUse" color-interpolation-filters="sRGB">
<feFlood flood-opacity="0" result="BackgroundImageFix"/>
<feColorMatrix in="SourceAlpha" type="matrix" values="0 0 0 0 0 0 0 0 0 0 0 0 0 0 0 0 0 0 127 0" result="hardAlpha"/>
<feOffset dy="5.6745"/>
<feGaussianBlur stdDeviation="11.349"/>
<feComposite in2="hardAlpha" operator="out"/>
<feColorMatrix type="matrix" values="0 0 0 0 0 0 0 0 0 0 0 0 0 0 0 0 0 0 0.45 0"/>
<feBlend mode="normal" in2="BackgroundImageFix" result="effect1_dropShadow_2057_32304"/>
<feBlend mode="normal" in="SourceGraphic" in2="effect1_dropShadow_2057_32304" result="shape"/>
</filter>
<clipPath id="clip0_2057_32304">
<rect width="218" height="218" fill="white" transform="translate(0 0.115234)"/>
</clipPath>
</defs>
</svg>
