<svg width="100" height="32" viewBox="0 0 100 32" fill="none" xmlns="http://www.w3.org/2000/svg">
<path d="M15.7093 10.6315C15.7093 7.82084 13.4481 5.55739 10.6831 5.55739H8.19062V15.6607H10.6831C13.4481 15.6607 15.7093 13.3956 15.7093 10.6315ZM27.0474 30.7726H17.8978L10.6337 20.6919H8.19062V30.7509H0.127075V0.53125H11.6785C18.3379 0.53125 23.7734 5.05974 23.7734 10.6315C23.7734 14.0296 21.6896 17.0647 18.5183 18.9218L27.0474 30.7726" fill="#808080"/>
<path d="M36.1413 12.4441C34.0118 12.4441 32.2005 15.3386 32.2005 18.9216C32.2005 22.5046 34.0118 25.4028 36.1413 25.4028C38.3202 25.4028 40.1286 22.5045 40.1286 18.9216C40.1286 15.3385 38.3202 12.4441 36.1413 12.4441V12.4441ZM48.5528 18.9216C48.5528 25.7665 42.9863 31.2477 36.1413 31.2477C29.2986 31.2477 23.7732 25.7665 23.7732 18.9216C23.7732 12.0818 29.2986 6.59766 36.1413 6.59766C42.9863 6.59766 48.5528 12.0818 48.5528 18.9216V18.9216ZM67.4754 7.09887L58.1866 16.3862V7.06817H50.1247V30.7499H58.1866V21.1437L67.8842 30.7499H78.0315L65.7083 18.425L75.9154 8.22164V22.2753C75.9154 26.9414 78.7215 31.2475 85.788 31.2475C89.1427 31.2475 92.2213 29.3449 93.7175 27.6233L97.3425 30.7498H99.0633V7.09887H91.0012V22.4116C90.0934 23.9962 88.8284 24.9925 86.8734 24.9925C84.8898 24.9925 83.9796 23.8165 83.9796 20.0553V7.09887H67.4754Z" fill="#808080"/>
</svg>
