<svg width="38" height="32" viewBox="0 0 38 32" fill="none" xmlns="http://www.w3.org/2000/svg">
<path d="M34.7946 1.60645H2.30181C1.42643 1.60645 0.716797 2.31608 0.716797 3.19146V23.7966C0.716797 24.672 1.42643 25.3816 2.30181 25.3816H34.7946C35.6699 25.3816 36.3796 24.672 36.3796 23.7966V3.19146C36.3796 2.31608 35.6699 1.60645 34.7946 1.60645Z" stroke="#DFDFDF" stroke-width="1.30474" stroke-linecap="round" stroke-linejoin="round"/>
<path d="M11.415 31.3254H25.6801" stroke="#DFDFDF" stroke-width="1.30474" stroke-linecap="round" stroke-linejoin="round"/>
<path d="M18.5479 25.3817V31.3255" stroke="#DFDFDF" stroke-width="1.30474" stroke-linecap="round" stroke-linejoin="round"/>
<path d="M34.7946 1.60645H2.30181C1.42643 1.60645 0.716797 2.31608 0.716797 3.19146V23.7966C0.716797 24.672 1.42643 25.3816 2.30181 25.3816H34.7946C35.6699 25.3816 36.3796 24.672 36.3796 23.7966V3.19146C36.3796 2.31608 35.6699 1.60645 34.7946 1.60645Z" stroke="#DFDFDF" stroke-width="1.30474" stroke-linecap="round" stroke-linejoin="round"/>
<path d="M11.415 31.3254H25.6801" stroke="#DFDFDF" stroke-width="1.30474" stroke-linecap="round" stroke-linejoin="round"/>
<path d="M18.5479 25.3817V31.3255" stroke="#DFDFDF" stroke-width="1.30474" stroke-linecap="round" stroke-linejoin="round"/>
</svg>
