<svg width="162" height="28" viewBox="0 0 162 28" fill="none" xmlns="http://www.w3.org/2000/svg">
<rect x="0.132324" y="0.295532" width="27.2785" height="27.2785" rx="7.48256" fill="#21A2FF"/>
<path d="M18.7059 11.9612C20.2251 12.8383 20.2251 15.0312 18.7059 15.9084L12.0604 19.7451C10.5412 20.6223 8.64209 19.5258 8.64209 17.7715L8.64209 10.098C8.64209 8.34375 10.5412 7.24732 12.0604 8.12446L18.7059 11.9612Z" fill="white"/>
<path d="M43.3152 21.1019C41.6184 21.1019 40.219 20.7611 39.1168 20.0795C38.0292 19.3979 37.2678 18.506 36.8328 17.4038L39.5737 15.9899C39.8782 16.7295 40.335 17.3023 40.9441 17.7084C41.5677 18.1144 42.3798 18.3175 43.3804 18.3175C43.8445 18.3175 44.2506 18.2594 44.5986 18.1434C44.9612 18.0274 45.2657 17.8824 45.5122 17.7084C45.7588 17.5343 45.9473 17.3386 46.0778 17.121C46.2083 16.889 46.2736 16.6642 46.2736 16.4467C46.2736 16.1567 46.1938 15.9174 46.0343 15.7288C45.8893 15.5258 45.6645 15.3445 45.36 15.185C45.0554 15.0255 44.6711 14.8805 44.2071 14.75C43.743 14.6049 43.1992 14.4454 42.5756 14.2714C41.923 14.0974 41.2921 13.8943 40.6831 13.6623C40.0885 13.4303 39.5519 13.1402 39.0733 12.7922C38.6093 12.4441 38.2322 12.0236 37.9422 11.5305C37.6666 11.0374 37.5289 10.4428 37.5289 9.74674C37.5289 9.05064 37.6739 8.42705 37.9639 7.87598C38.2685 7.3249 38.6673 6.86083 39.1603 6.48378C39.6534 6.10672 40.2262 5.81668 40.8788 5.61365C41.5459 5.41063 42.2348 5.30911 42.9454 5.30911C44.3086 5.30911 45.4832 5.6064 46.4694 6.20099C47.47 6.79557 48.2386 7.61494 48.7752 8.65909L45.9908 10.0513C45.3817 8.7606 44.3666 8.11526 42.9454 8.11526C42.1913 8.11526 41.5894 8.28928 41.1399 8.63733C40.7048 8.97088 40.4873 9.35519 40.4873 9.79025C40.4873 10.0803 40.5525 10.3196 40.6831 10.5081C40.8136 10.6821 41.0094 10.8416 41.2704 10.9867C41.5459 11.1317 41.894 11.2695 42.3145 11.4C42.7496 11.516 43.2572 11.661 43.8373 11.835C44.5044 12.0236 45.1569 12.2338 45.795 12.4659C46.4476 12.6979 47.0277 12.9952 47.5353 13.3578C48.0574 13.7058 48.4707 14.1336 48.7752 14.6412C49.0943 15.1488 49.2538 15.7796 49.2538 16.5337C49.2538 17.2298 49.1015 17.8606 48.797 18.4262C48.4924 18.9918 48.0719 19.4704 47.5353 19.8619C47.0132 20.2535 46.3896 20.558 45.6645 20.7756C44.9394 20.9931 44.1563 21.1019 43.3152 21.1019Z" fill="white"/>
<path d="M57.05 20.8191C56.731 20.8481 56.4265 20.8698 56.1364 20.8843C55.8609 20.9133 55.5926 20.9278 55.3316 20.9278C54.795 20.9278 54.3092 20.8771 53.8741 20.7756C53.4535 20.6595 53.091 20.4638 52.7864 20.1882C52.4964 19.9127 52.2716 19.5429 52.1121 19.0788C51.9671 18.6002 51.8946 17.9984 51.8946 17.2733V12.3571H49.8498V9.94252H51.8946V7.26689L54.5919 6.35326V9.94252H57.0065V12.3571H54.5919V17.0993C54.5919 17.6069 54.7152 17.9549 54.9618 18.1434C55.2083 18.3175 55.5708 18.4045 56.0494 18.4045C56.3249 18.4045 56.6585 18.3827 57.05 18.3392V20.8191Z" fill="white"/>
<path d="M65.4942 12.5094C65.3491 12.4659 65.1896 12.4441 65.0156 12.4441C64.1455 12.4441 63.4131 12.6907 62.8185 13.1837C62.2239 13.6623 61.9266 14.3584 61.9266 15.272V20.8191H59.2293V9.94252H61.9266V11.9003C62.1587 11.3927 62.5575 10.9432 63.1231 10.5516C63.7032 10.1455 64.4428 9.94252 65.3419 9.94252H65.6899L65.4942 12.5094Z" fill="white"/>
<path d="M72.0218 9.65973C72.8339 9.65973 73.5735 9.812 74.2406 10.1165C74.9077 10.4066 75.4805 10.8126 75.9591 11.3347C76.4377 11.8568 76.8075 12.4659 77.0685 13.162C77.344 13.8581 77.4818 14.6049 77.4818 15.4025C77.4818 15.7506 77.4528 16.0696 77.3948 16.3597H68.9763C69.1649 17.0993 69.5419 17.6939 70.1075 18.1434C70.6876 18.5785 71.3982 18.796 72.2393 18.796C72.7759 18.796 73.2835 18.6873 73.762 18.4697C74.2551 18.2377 74.6249 17.9332 74.8714 17.5561L76.938 18.7743C76.4304 19.5139 75.7778 20.0867 74.9802 20.4928C74.1826 20.8988 73.2545 21.1019 72.1958 21.1019C71.3112 21.1019 70.4991 20.9568 69.7595 20.6668C69.0344 20.3768 68.4108 19.9779 67.8887 19.4704C67.3811 18.9483 66.9823 18.3392 66.6923 17.6431C66.4167 16.947 66.279 16.1929 66.279 15.3808C66.279 14.5687 66.4167 13.8146 66.6923 13.1185C66.9823 12.4224 67.3739 11.8205 67.8669 11.313C68.3745 10.8054 68.9836 10.4066 69.6942 10.1165C70.4048 9.812 71.1807 9.65973 72.0218 9.65973ZM74.9367 14.2496C74.8352 13.539 74.5161 12.988 73.9796 12.5964C73.443 12.2048 72.7759 12.0091 71.9783 12.0091C71.5577 12.0091 71.1662 12.0743 70.8036 12.2048C70.4411 12.3209 70.122 12.4804 69.8465 12.6834C69.5709 12.8864 69.3534 13.1257 69.1939 13.4013C69.0344 13.6623 68.9473 13.9451 68.9328 14.2496H74.9367Z" fill="white"/>
<path d="M87.4479 19.6661C87.0709 20.1012 86.6213 20.4565 86.0993 20.732C85.5917 20.9931 84.9898 21.1236 84.2937 21.1236C83.4526 21.1236 82.6913 20.9786 82.0097 20.6885C81.3426 20.3985 80.7697 19.9997 80.2912 19.4921C79.8271 18.9701 79.4646 18.361 79.2035 17.6649C78.957 16.9688 78.8337 16.2147 78.8337 15.4025C78.8337 14.5904 78.957 13.8363 79.2035 13.1402C79.4646 12.4296 79.8271 11.8205 80.2912 11.313C80.7697 10.7909 81.3426 10.3848 82.0097 10.0948C82.6913 9.80475 83.4526 9.65973 84.2937 9.65973C84.9898 9.65973 85.5917 9.7975 86.0993 10.073C86.6213 10.3341 87.0709 10.6821 87.4479 11.1172V9.94252H90.1453V20.8191H87.4479V19.6661ZM84.359 18.6002C84.8086 18.6002 85.2219 18.5205 85.5989 18.361C85.976 18.2014 86.3023 17.9767 86.5778 17.6866C86.8534 17.3966 87.0636 17.0558 87.2087 16.6642C87.3682 16.2727 87.4479 15.8449 87.4479 15.3808C87.4479 14.9167 87.3682 14.4962 87.2087 14.1191C87.0636 13.7276 86.8534 13.394 86.5778 13.1185C86.3023 12.8284 85.976 12.6036 85.5989 12.4441C85.2219 12.2846 84.8086 12.2048 84.359 12.2048C83.9239 12.2048 83.5324 12.2919 83.1843 12.4659C82.8363 12.6254 82.5318 12.8574 82.2707 13.162C82.0242 13.452 81.8284 13.7928 81.6834 14.1844C81.5529 14.5614 81.4876 14.9675 81.4876 15.4025C81.4876 15.8376 81.5529 16.2509 81.6834 16.6425C81.8284 17.034 82.0242 17.3748 82.2707 17.6649C82.5318 17.9549 82.8363 18.1869 83.1843 18.361C83.5324 18.5205 83.9239 18.6002 84.359 18.6002Z" fill="white"/>
<path d="M109.25 20.8191H106.553V14.3149C106.553 13.8653 106.48 13.4955 106.335 13.2055C106.19 12.9154 106.009 12.6834 105.791 12.5094C105.574 12.3354 105.327 12.2121 105.052 12.1396C104.791 12.0671 104.53 12.0308 104.269 12.0308C104.008 12.0308 103.754 12.0743 103.507 12.1613C103.261 12.2483 103.036 12.4006 102.833 12.6181C102.63 12.8212 102.463 13.0967 102.333 13.4448C102.217 13.7783 102.159 14.2061 102.159 14.7282V20.8191H99.4613V14.3149C99.4613 13.8653 99.3887 13.4955 99.2437 13.2055C99.0987 12.9154 98.9174 12.6834 98.6999 12.5094C98.4824 12.3354 98.2358 12.2121 97.9603 12.1396C97.6993 12.0671 97.4382 12.0308 97.1772 12.0308C96.9161 12.0308 96.6551 12.0743 96.3941 12.1613C96.1475 12.2483 95.9228 12.4006 95.7197 12.6181C95.5312 12.8212 95.3717 13.0967 95.2412 13.4448C95.1251 13.7783 95.0671 14.2061 95.0671 14.7282V20.8191H92.3698V9.94252H95.0671V10.8126C95.4152 10.4791 95.8212 10.2036 96.2853 9.98603C96.7494 9.76849 97.2569 9.65973 97.808 9.65973C98.0836 9.65973 98.3809 9.68873 98.6999 9.74674C99.0334 9.80475 99.367 9.90626 99.7005 10.0513C100.049 10.1963 100.375 10.3921 100.679 10.6386C100.998 10.8852 101.274 11.2042 101.506 11.5958C101.84 11.0882 102.296 10.6386 102.876 10.2471C103.471 9.85551 104.145 9.65973 104.9 9.65973C105.291 9.65973 105.733 9.72499 106.226 9.85551C106.734 9.97152 107.213 10.2036 107.662 10.5516C108.112 10.8997 108.489 11.3782 108.793 11.9873C109.098 12.5819 109.25 13.3578 109.25 14.3149V20.8191Z" fill="white"/>
<path d="M112.823 7.41916C112.432 7.41916 112.091 7.28139 111.801 7.00585C111.511 6.73031 111.366 6.38951 111.366 5.98346C111.366 5.5774 111.511 5.2366 111.801 4.96106C112.091 4.67102 112.432 4.526 112.823 4.526C113.215 4.526 113.548 4.67102 113.824 4.96106C114.114 5.2366 114.259 5.5774 114.259 5.98346C114.259 6.38951 114.114 6.73031 113.824 7.00585C113.548 7.28139 113.215 7.41916 112.823 7.41916ZM111.453 9.94252H114.128V20.8191H111.453V9.94252Z" fill="white"/>
<path d="M126.547 20.8191H123.85V14.3149C123.85 13.8653 123.778 13.4955 123.633 13.2055C123.487 12.9154 123.306 12.6834 123.089 12.5094C122.871 12.3354 122.625 12.2121 122.349 12.1396C122.088 12.0671 121.827 12.0308 121.566 12.0308C121.305 12.0308 121.044 12.0743 120.783 12.1613C120.536 12.2483 120.304 12.4006 120.087 12.6181C119.884 12.8212 119.717 13.0967 119.586 13.4448C119.456 13.7783 119.391 14.2061 119.391 14.7282V20.8191H116.693V9.94252H119.391V10.8561C119.739 10.5226 120.152 10.2398 120.631 10.0078C121.109 9.77575 121.638 9.65973 122.219 9.65973C122.61 9.65973 123.052 9.72499 123.545 9.85551C124.053 9.97152 124.524 10.2036 124.959 10.5516C125.409 10.8997 125.786 11.3782 126.091 11.9873C126.395 12.5819 126.547 13.3578 126.547 14.3149V20.8191Z" fill="white"/>
<path d="M137.187 19.6879C136.81 20.1085 136.36 20.4565 135.838 20.732C135.331 20.9931 134.729 21.1236 134.033 21.1236C133.192 21.1236 132.43 20.9786 131.749 20.6885C131.082 20.3985 130.509 19.9997 130.03 19.4921C129.566 18.9701 129.204 18.361 128.943 17.6649C128.696 16.9688 128.573 16.2147 128.573 15.4025C128.573 14.5904 128.696 13.8363 128.943 13.1402C129.204 12.4296 129.566 11.8205 130.03 11.313C130.509 10.7909 131.082 10.3848 131.749 10.0948C132.43 9.80475 133.192 9.65973 134.033 9.65973C134.729 9.65973 135.331 9.7975 135.838 10.073C136.36 10.3341 136.81 10.6749 137.187 11.0954V9.94252H139.863V20.2752C139.863 21.0583 139.71 21.7689 139.406 22.407C139.101 23.0451 138.681 23.589 138.144 24.0385C137.622 24.4881 136.991 24.8361 136.252 25.0827C135.527 25.3292 134.736 25.4525 133.881 25.4525C133.243 25.4525 132.633 25.3872 132.053 25.2567C131.473 25.1262 130.937 24.9449 130.444 24.7129C129.951 24.4808 129.515 24.2053 129.138 23.8862C128.776 23.5672 128.493 23.2119 128.29 22.8203L130.596 21.4934C130.799 21.885 131.19 22.2258 131.771 22.5158C132.351 22.8203 133.076 22.9726 133.946 22.9726C134.41 22.9726 134.838 22.9074 135.229 22.7768C135.621 22.6463 135.962 22.4578 136.252 22.2113C136.542 21.9792 136.767 21.6964 136.926 21.3629C137.1 21.0438 137.187 20.6813 137.187 20.2752V19.6879ZM134.098 18.6002C134.548 18.6002 134.961 18.5205 135.338 18.361C135.715 18.2014 136.041 17.9767 136.317 17.6866C136.592 17.3966 136.803 17.0558 136.948 16.6642C137.107 16.2727 137.187 15.8449 137.187 15.3808C137.187 14.9167 137.107 14.4962 136.948 14.1191C136.803 13.7276 136.592 13.394 136.317 13.1185C136.041 12.8284 135.715 12.6036 135.338 12.4441C134.961 12.2846 134.548 12.2048 134.098 12.2048C133.663 12.2048 133.272 12.2919 132.923 12.4659C132.575 12.6254 132.271 12.8574 132.01 13.162C131.763 13.452 131.568 13.7928 131.422 14.1844C131.292 14.5614 131.227 14.9675 131.227 15.4025C131.227 15.8376 131.292 16.2509 131.422 16.6425C131.568 17.034 131.763 17.3748 132.01 17.6649C132.271 17.9549 132.575 18.1869 132.923 18.361C133.272 18.5205 133.663 18.6002 134.098 18.6002Z" fill="white"/>
<path d="M157.799 20.8191L154.297 15.359L150.773 20.8191H147.379L152.317 13.1837L147.401 5.5919H150.794L154.297 11.0084L157.777 5.5919H161.192L156.276 13.1837L161.214 20.8191H157.799Z" fill="white"/>
</svg>
