<svg width="25" height="33" viewBox="0 0 25 33" fill="none" xmlns="http://www.w3.org/2000/svg">
<path d="M21.2888 1H3.80589C2.32042 1 1.11621 2.20421 1.11621 3.68968V29.2417C1.11621 30.7271 2.32042 31.9313 3.80589 31.9313H21.2888C22.7743 31.9313 23.9785 30.7271 23.9785 29.2417V3.68968C23.9785 2.20421 22.7743 1 21.2888 1Z" stroke="#DFDFDF" stroke-width="1.34484" stroke-linecap="round" stroke-linejoin="round"/>
<path d="M12.5462 28.5694C12.6353 28.5694 12.7209 28.6048 12.7839 28.6679C12.847 28.7309 12.8824 28.8164 12.8824 28.9056C12.8824 28.9948 12.847 29.0803 12.7839 29.1433C12.7209 29.2064 12.6353 29.2418 12.5462 29.2418C12.457 29.2418 12.3715 29.2064 12.3084 29.1433C12.2454 29.0803 12.21 28.9948 12.21 28.9056C12.21 28.8164 12.2454 28.7309 12.3084 28.6679C12.3715 28.6048 12.457 28.5694 12.5462 28.5694Z" fill="#DFDFDF" stroke="#DFDFDF" stroke-width="1.34484" stroke-linecap="round" stroke-linejoin="round"/>
</svg>
