<svg width="30" height="30" viewBox="0 0 30 30" fill="none" xmlns="http://www.w3.org/2000/svg">
<path d="M1 15C1 18.713 2.475 22.274 5.10051 24.8995C7.72601 27.525 11.287 29 15 29C18.713 29 22.274 27.525 24.8995 24.8995C27.525 22.274 29 18.713 29 15C29 11.287 27.525 7.72601 24.8995 5.10051C22.274 2.475 18.713 1 15 1C11.287 1 7.72601 2.475 5.10051 5.10051C2.475 7.72601 1 11.287 1 15V15Z" stroke="white" stroke-width="1.4" stroke-linecap="round" stroke-linejoin="round"/>
<path d="M15 14.9999V9.99988" stroke="white" stroke-width="1.4" stroke-linecap="round" stroke-linejoin="round"/>
<path d="M15 15L21.2493 21.2507" stroke="white" stroke-width="1.4" stroke-linecap="round" stroke-linejoin="round"/>
</svg>
