<svg width="74" height="55" viewBox="0 0 74 55" fill="none" xmlns="http://www.w3.org/2000/svg">
<path d="M56.6536 11.2323C53.3237 7.19895 48.8302 4.29146 43.7865 2.9067C38.7429 1.52195 33.3947 1.72742 28.4722 3.49505C23.5496 5.26269 19.2924 8.50637 16.2818 12.7833C13.2712 17.0603 11.6538 22.1621 11.6504 27.3924V34.3314" stroke="#DFDFDF" stroke-width="3" stroke-linecap="round" stroke-linejoin="round"/>
<path d="M18.5801 44.8275C22.072 48.5276 26.5943 51.0943 31.5615 52.1951C36.5287 53.2959 41.712 52.8803 46.4403 51.0019C51.1685 49.1235 55.224 45.869 58.0817 41.6596C60.9393 37.4503 62.4675 32.48 62.4683 27.3923V22.7725" stroke="#DFDFDF" stroke-width="3" stroke-linecap="round" stroke-linejoin="round"/>
<path d="M2.41016 25.0825L11.6498 34.3221L20.8894 25.0825" stroke="#DFDFDF" stroke-width="3" stroke-linecap="round" stroke-linejoin="round"/>
<path d="M71.7078 32.0121L62.4681 22.7725L53.2285 32.0121" stroke="#DFDFDF" stroke-width="3" stroke-linecap="round" stroke-linejoin="round"/>
</svg>
